<?xml version="1.0" encoding="utf-8"?>
<!-- Generator: Adobe Illustrator 18.1.1, SVG Export Plug-In . SVG Version: 6.00 Build 0)  -->
<svg version="1.1" id="Layer_1" xmlns="http://www.w3.org/2000/svg" xmlns:xlink="http://www.w3.org/1999/xlink" x="0px" y="0px"
	 viewBox="0 0 600 600" style="enable-background:new 0 0 600 600;" xml:space="preserve">
<ellipse id="circle" style="fill:#FFFFFF;stroke:#5C7782;stroke-width:7;stroke-miterlimit:10;enable-background:new    ;" cx="300" cy="300.2" rx="296.5" ry="296"/>
<g id="ring_x5F_leaf">
	<g>
		<g>
			<path style="fill:#588C38;stroke:#C9CEC6;stroke-width:4;stroke-miterlimit:10;" d="M298.4,564.4c0.1,0.1,0.1,0.2,0.3,0.2
				c0.2,0.1,0.5,0.1,0.9,0.1c0.4,0,0.8,0,1.3,0c9,0.2,18.4-0.2,27.6-1.3c3-0.4,5.9-0.8,8.9-1.3c3-0.5,5.8-1.2,8.5-1.9
				c1.3-0.3,2.7-0.6,4.1-0.9c1.3-0.3,2.6-0.8,3.9-1.2c2.5-0.8,5-1.7,7.3-2.5c0.6-0.3,1.3-0.5,2.1-0.8c0.6-0.3,1.3-0.6,1.9-0.8
				c1.2-0.5,2.4-1.2,3.4-1.8c7.2-3.6,10.1-7.1,12.1-9.9c0.9-1.3,1.3-2.5,1.8-3.7c0.4-1.2,0.8-2.3,2-3.8c0.6-0.8,0.2-0.9,0.3-1.6
				c0-0.1,0-0.2-0.4-0.2c-0.2,0.1-0.6,0.2-0.9,0.3c-4.3,1.6-8.6,3-13,4.5c-2.2,0.6-4.4,1.3-6.5,2.1c-2.2,0.6-4.3,1.3-6.4,2
				c-3,0.8-5.9,1.7-8.7,2.4c-3,0.8-5.8,1.3-8.6,2.2c-1.3,0.3-2.9,0.8-4.3,1.1c-1.3,0.3-2.9,0.6-4.1,0.8c-2.7,0.6-5.5,1.2-8,1.9
				c-3,0.6-6.2,1.3-8.6,2c-4.4,1.3-8,2.3-10.7,3.5c-2.7,1.2-4.5,2.4-5.6,3.6C297.4,561.1,297.4,562.7,298.4,564.4z"/>
			<path style="fill:#588C38;stroke:#C9CEC6;stroke-width:4;stroke-miterlimit:10;" d="M298.8,574.3c1.1,1.2,3,2.3,6,3.4
				c3,0.9,6.8,2.1,11.9,2.5c2.9,0.3,6.4,0.4,10,0.5c3,0,6-0.1,9.3-0.2c1.7-0.1,3.1-0.1,4.8-0.2c1.7-0.2,3.3-0.3,5-0.5
				c3.3-0.4,6.7-0.8,10.1-1.3c3.4-0.6,6.8-1.2,10.3-2c2.5-0.4,5.1-1.1,7.6-1.8c2.5-0.6,5.2-1.3,7.7-2c2.5-0.6,5.1-1.6,7.6-2.4
				s5.1-1.7,7.5-2.5c0.3-0.1,0.8-0.3,1.1-0.4c0.4-0.2,0.3-0.3,0.2-0.4c-0.4-0.3-0.8-0.5-1.3-0.8c-2.2-1.2-4.8-2.5-8.3-3.3
				c-3.7-0.9-8.2-1.6-16.6-0.9c-1.2,0.1-2.5,0.2-3.9,0.3c-0.6,0.1-1.3,0.1-2.2,0.2c-0.8,0.1-1.6,0.1-2.3,0.2c-2.5,0.3-5.2,0.6-8,0.9
				c-1.3,0.1-2.7,0.4-4.1,0.5c-1.3,0.1-2.9,0.2-4.3,0.4c-3,0.2-5.8,0.6-8.9,0.9c-3,0.2-6,0.5-9,0.8c-9.3,0.9-18.5,2.1-27.7,2.5
				c-0.4,0-0.9,0.1-1.3,0.1c-0.4,0-0.8,0.1-0.9,0.2c-0.2,0.1-0.3,0.2-0.3,0.2C297.4,570.9,297.3,572.7,298.8,574.3z"/>
		</g>
		<g>
			<path style="fill:#588C38;stroke:#C9CEC6;stroke-width:4;stroke-miterlimit:10;" d="M400.2,543.7c0.1,0.1,0.2,0.1,0.4,0.1
				s0.5-0.1,0.9-0.2c0.4-0.1,0.8-0.3,1.3-0.4c8.5-3.4,16.8-7.2,24.9-11.9c2.6-1.6,5.2-3,7.7-4.7c2.4-1.7,4.8-3.4,7.3-5.1
				c1.2-0.8,2.3-1.7,3.4-2.5c1.1-0.8,2.1-1.8,3.1-2.6c2.1-1.8,3.9-3.5,5.7-5.2c2.1-2.2,3.9-4.2,5.5-6.1c1.3-1.6,2.4-3,3.3-4.2
				c0.8-1.3,1.6-2.6,2.1-3.7c1.1-2.3,1.7-4.1,2.1-5.9c0.8-3.3-0.4-5,0.5-8.5c0.3-0.9-0.1-0.9-0.2-1.6c0-0.1-0.1-0.2-0.4,0
				c-0.2,0.1-0.5,0.4-0.8,0.6c-0.8,0.8-1.7,1.6-2.5,2.3c-0.8,0.8-1.8,1.6-2.6,2.3c-1.8,1.6-3.5,3-5.2,4.7c-1.8,1.6-3.5,3-5.2,4.5
				c-1.8,1.3-3.5,3-5.2,4.3c-9.5,7.7-19.4,14.6-28,21c-2.5,1.8-5.2,3.6-7.3,5.2c-3.6,3-6.4,5.2-8.5,7.4c-2,2.1-3.3,3.9-3.7,5.6
				C397.8,541.1,398.6,542.6,400.2,543.7z"/>
			<path style="fill:#588C38;stroke:#C9CEC6;stroke-width:4;stroke-miterlimit:10;" d="M404.4,552.8c1.6,0.6,3.7,0.9,6.8,0.8
				c1.6-0.1,3.4-0.3,5.4-0.6c2.1-0.3,4.3-0.8,6.7-1.7c2.7-0.8,6.1-2.1,9.3-3.4c11-4.7,23.2-11.2,34.8-19.2c2.1-1.3,4.1-3,6.2-4.7
				c2.1-1.6,4.3-3,6.3-4.8c2.1-1.8,4-3.4,6.1-5.2c0.9-0.8,2-1.8,3-2.6c0.9-0.8,2-1.8,2.9-2.7c0.3-0.3,0.5-0.5,0.8-0.8
				c0.3-0.4,0.2-0.4,0.1-0.4c-0.5-0.1-1.1-0.1-1.6-0.2c-2.5-0.3-5.4-0.3-8.9,0.2c-1.9,0.3-3.9,0.6-6.4,1.6c-1.2,0.4-2.6,0.9-4,1.7
				c-1.6,0.6-3.1,1.3-5.1,2.3c-2.2,1.1-4.7,2.4-7.5,3.9c-2.2,1.3-4.7,2.6-7,3.9c-1.2,0.6-2.4,1.3-3.6,2.1c-1.2,0.6-2.5,1.3-3.8,2.1
				c-2.6,1.3-5.2,2.9-7.8,4.2c-2.6,1.3-5.4,2.7-8,4.2c-8.2,4.5-16.2,9-24.5,12.9c-0.4,0.2-0.8,0.4-1.2,0.6c-0.3,0.2-0.6,0.4-0.8,0.5
				c-0.2,0.2-0.2,0.3-0.2,0.3C401.7,550.2,402.2,551.7,404.4,552.8z"/>
		</g>
		<g>
			<path style="fill:#588C38;stroke:#C9CEC6;stroke-width:4;stroke-miterlimit:10;" d="M486,485.6c0.1,0,0.2,0,0.4-0.1
				c0.2-0.1,0.5-0.3,0.8-0.5c0.3-0.2,0.6-0.5,0.9-0.8c1.7-1.7,3.3-3.1,5-4.8c1.7-1.7,3-3.4,4.7-5.1c1.6-1.8,3-3.5,4.7-5.2
				c1.3-1.9,2.9-3.6,4.3-5.5c3.7-4.7,7-9.8,10.1-14.6c1.3-2.4,2.7-5,4-7.4c1.2-2.4,2.4-4.7,3.3-6.8c1.1-2.9,2.1-5.4,2.7-7.7
				c0.6-1.9,0.9-3.6,1.3-5.2c0.3-1.6,0.4-3,0.5-4.1c0.1-2.5,0-4.5-0.2-6.2c-0.5-3.4-2.4-4.5-2.7-8.1c-0.1-1.1-0.5-0.8-0.8-1.3
				c-0.1-0.1-0.2-0.2-0.4,0.2c-0.1,0.2-0.3,0.5-0.4,0.8c-0.4,0.9-0.9,2.1-1.3,3c-0.4,1.1-0.9,2.1-1.3,3c-0.9,2.1-2.1,4.1-3,6.2
				c-0.5,1.1-0.9,2.1-1.6,3c-0.5,0.9-1.1,2-1.7,3c-1.1,2-2.1,4-3.1,6c-0.6,1.3-1.3,2.7-2.2,3.9c-0.8,1.3-1.6,2.6-2.3,3.9
				c-0.8,1.3-1.6,2.6-2.2,3.9c-0.8,1.3-1.6,2.5-2.3,3.8c-1.6,2.5-3,5.1-4.5,7.5c-1.6,2.4-3,4.7-4.4,6.9c-1.6,2.7-3.4,5.4-4.7,7.6
				c-1.1,2-2.1,3.8-3,5.6c-0.8,1.7-1.6,3.1-2.1,4.5c-1.1,2.7-1.6,5-1.3,6.5C482.8,483.9,483.9,485,486,485.6z"/>
			<path style="fill:#588C38;stroke:#C9CEC6;stroke-width:4;stroke-miterlimit:10;" d="M493.3,492.2c1.7,0,3.8-0.5,6.7-2
				c1.3-0.6,3-1.6,4.7-2.6c1.7-1.1,3.5-2.5,5.5-4c2.2-1.9,5-4.1,7.4-6.7c2.1-2.1,4.3-4.3,6.3-6.7s4.1-5,6.2-7.6
				c1.1-1.3,2.1-2.6,3.1-3.9c0.9-1.3,2-2.7,3-4.1c0.9-1.3,2-2.9,3-4.2c0.9-1.3,2-2.9,2.9-4.3c1.3-2.2,2.7-4.3,4-6.5
				c0.6-1.1,1.3-2.2,2.1-3.4c0.6-1.2,1.3-2.3,1.9-3.5c1.2-2.3,2.5-4.7,3.7-6.9l0.8-1.8l0.8-1.8c0.5-1.2,1.1-2.4,1.7-3.6
				c0.1-0.3,0.3-0.8,0.4-1.1c0.1-0.5,0-0.5-0.1-0.4c-0.5,0.1-0.9,0.2-1.6,0.3c-2.4,0.6-5.2,1.8-8.1,3.6c-1.7,0.9-3.4,2.1-5.5,3.8
				c-0.9,0.8-2.1,1.9-3.1,3c-1.1,1.2-2.3,2.5-3.7,4.1c-1.7,1.9-3.5,4-5.4,6.4c-1.3,2.1-3.1,4.1-5,6.3c-1.8,2.2-3.4,4.5-5.2,6.7
				c-3.8,4.5-7.5,9.3-11.4,13.9c-1.3,1.9-2.9,3.7-4.3,5.5c-1.6,1.8-3,3.6-4.4,5.4c-1.3,1.8-2.9,3.6-4.4,5.4l-4.7,5.2
				c-0.3,0.3-0.6,0.8-0.8,1.1c-0.2,0.3-0.4,0.6-0.5,0.8c-0.1,0.2-0.1,0.3-0.1,0.4C489.9,490.8,491,492.2,493.3,492.2z"/>
		</g>
		<g>
			<path style="fill:#588C38;stroke:#C9CEC6;stroke-width:4;stroke-miterlimit:10;" d="M542.9,398.9c0.1,0,0.2,0,0.3-0.2
				c0.1-0.2,0.3-0.4,0.5-0.8c0.2-0.3,0.4-0.8,0.5-1.2c0.8-2.1,1.9-4.1,2.6-6.3c0.7-2.2,1.6-4.2,2.3-6.4c1.7-4.2,2.9-8.7,4-13.3
				c0.4-1.3,0.8-2.9,1.1-4.3c0.3-1.3,0.5-3,0.8-4.3c0.5-3,1.1-5.8,1.6-8.6c0.3-2.9,0.6-5.6,0.8-8.3c0.1-1.3,0.2-2.6,0.3-3.9
				c0.1-1.3,0-2.5,0-3.7c0-3-0.2-5.8-0.4-8.1c-0.1-2-0.4-3.7-0.8-5.2c-0.3-1.6-0.8-2.9-1.2-4c-0.8-2.4-1.8-4.1-2.6-5.7
				c-1.8-2.9-3.9-3.1-5.7-6.3c-0.5-0.9-0.8-0.6-1.2-0.8c-0.1-0.1-0.2-0.1-0.3,0.3c0,0.2-0.1,0.6-0.1,0.9c0,4.7-0.4,9.2-0.6,13.8
				c-0.1,1.2-0.1,2.3-0.2,3.5c-0.1,1.1-0.2,2.3-0.3,3.4c-0.2,2.3-0.4,4.5-0.6,6.8l-0.2,2.3c-0.1,0.8-0.2,1.6-0.3,2.3
				c-0.2,1.6-0.4,3-0.5,4.5c-0.4,3-0.6,6-1.2,8.9c-0.4,3-0.8,5.8-1.2,8.5c-0.4,2.7-0.9,5.5-1.3,8.1c-0.2,1.6-0.4,3-0.6,4.7
				c-0.2,1.6-0.5,3-0.6,4.1c-0.3,2.3-0.5,4.3-0.5,6.2c0,0.9-0.1,1.9-0.1,2.6c0,0.8,0,1.7,0,2.3c0,3,0.4,5.1,1.2,6.5
				C539.3,398.6,540.8,399.3,542.9,398.9z"/>
			<path style="fill:#588C38;stroke:#C9CEC6;stroke-width:4;stroke-miterlimit:10;" d="M552.2,402.3c3-1.2,7.5-5.5,12.2-14.5
				c0.6-1.3,1.3-2.7,2.2-4.2c0.6-1.6,1.3-3.1,2-4.8c1.1-2.7,2.3-5.7,3.4-8.6c0.9-3,2-6.1,3-9.4c0.9-3.1,1.8-6.5,2.5-9.8
				c0.3-1.7,0.8-3.4,1.1-5.1l0.5-2.5l0.4-2.6c0.4-2.5,0.8-5.1,1.2-7.7c0.2-1.3,0.4-2.6,0.5-3.9c0.1-1.3,0.2-2.6,0.4-3.9
				c0.4-5.2,1.1-10.7,1.1-15.7c0-0.4,0-0.8,0-1.1c-0.1-0.5-0.2-0.4-0.3-0.4c-0.4,0.3-0.8,0.6-1.3,0.9c-2.1,1.6-4,3.5-6.1,6.4
				c-1.1,1.6-2.3,3.3-3.5,5.6c-0.5,1.2-1.2,2.5-1.8,4c-0.5,1.6-1.1,3.3-1.9,5.2c-0.8,2.3-1.7,5.1-2.5,8c-0.3,1.2-0.5,2.5-0.9,3.8
				c-0.3,1.3-0.8,2.6-1.1,3.9c-0.8,2.6-1.6,5.4-2.3,8.2c-0.8,2.7-1.8,5.6-2.5,8.5c-0.4,1.3-0.8,2.9-1.2,4.3
				c-0.4,1.3-0.8,2.9-1.3,4.3c-0.6,2.3-1.3,4.5-1.9,6.8l-0.4,1.7l-0.5,1.7l-0.9,3.3c-0.6,2.2-1.3,4.3-2,6.7
				c-0.6,2.2-1.6,4.3-2.3,6.5c-0.1,0.4-0.3,0.8-0.4,1.3c-0.1,0.4-0.2,0.8-0.2,0.9c0,0.2,0,0.3,0.1,0.4
				C548.5,402.3,550,403.1,552.2,402.3z"/>
		</g>
		<g>
			<path style="fill:#588C38;stroke:#C9CEC6;stroke-width:4;stroke-miterlimit:10;" d="M561.8,297.2c0.1-0.1,0.2-0.1,0.2-0.3
				c0.1-0.2,0.1-0.5,0.1-0.9c0-0.4,0-0.8,0-1.3c0-2.3,0-4.7,0-6.8c0-2.3-0.2-4.7-0.3-6.8c-0.1-2.3-0.3-4.7-0.4-6.8
				c-0.2-2.3-0.5-4.7-0.8-6.8l-0.6-4.5l-0.3-2.2c-0.1-0.8-0.3-1.3-0.4-2.2c-0.6-3-1.3-5.8-2-8.5c-0.5-2.9-1.6-5.5-2.3-8
				c-0.8-2.5-1.7-5-2.5-7.2c-1.2-2.7-2.4-5.2-3.6-7.4c-0.8-1.8-1.8-3.3-2.7-4.7c-0.8-1.3-1.9-2.4-2.6-3.3c-1.7-1.9-3.3-3.1-4.7-4.1
				c-2.7-2-4.8-1.3-7.7-3.7c-0.8-0.6-0.9-0.2-1.6-0.3c-0.1,0-0.2,0-0.2,0.4c0.1,0.2,0.2,0.6,0.3,0.9c0.4,1.1,0.8,2.1,1.2,3.1
				c0.3,1.1,0.8,2.2,1.1,3.3c0.8,2.2,1.6,4.3,2.3,6.5c0.4,1.1,0.8,2.2,1.1,3.3s0.6,2.2,0.9,3.3c0.6,2.2,1.3,4.3,2.1,6.4
				c1.6,5.9,3.4,11.7,4.7,17.4c0.3,1.3,0.8,2.9,1.1,4.2c0.2,0.6,0.3,1.3,0.5,2.1c0.2,0.6,0.3,1.3,0.4,2.1c0.6,2.7,1.2,5.5,1.9,8
				c0.2,0.8,0.4,1.6,0.5,2.3c0.2,0.8,0.3,1.6,0.5,2.3c0.3,1.6,0.6,2.9,0.9,4.1c0.6,2.2,1.2,4.1,1.9,5.9s1.1,3.3,1.8,4.7
				c1.2,2.6,2.4,4.5,3.6,5.6C558.4,298.3,560.2,298.3,561.8,297.2z"/>
			<path style="fill:#588C38;stroke:#C9CEC6;stroke-width:4;stroke-miterlimit:10;" d="M571.7,296.6c1.2-1.1,2.3-3.1,3.4-6.1
				c0.5-1.6,0.9-3.1,1.3-5.2c0.3-2,0.6-4.2,0.8-6.8c0.1-1.3,0.2-3,0.3-4.7c0-0.8,0.1-1.8,0.1-2.6c0-0.8,0-1.8,0-2.6
				c0-3-0.1-6-0.3-9.3c0-0.8-0.1-1.7-0.1-2.4c-0.1-0.8-0.1-1.7-0.2-2.4c-0.2-1.7-0.3-3.3-0.5-5c-0.6-6.7-2.1-13.5-3.4-20.3
				c-0.5-2.5-1.2-5.1-1.9-7.6c-0.6-2.5-1.2-5.2-2.1-7.7c-0.8-2.5-1.7-5.1-2.4-7.6c-0.4-1.2-0.8-2.5-1.2-3.7
				c-0.4-1.2-0.9-2.4-1.3-3.7c-0.1-0.3-0.3-0.8-0.4-1.1c-0.2-0.4-0.3-0.3-0.4-0.2c-0.3,0.4-0.5,0.8-0.8,1.3
				c-1.3,2.2-2.3,4.8-3.1,8.3c-0.4,1.9-0.8,3.9-1.1,6.5c-0.1,1.3-0.1,2.7-0.1,4.3c0,1.7,0.1,3.5,0.2,5.6c0.1,2.5,0.4,5.2,0.8,8.3
				c0.3,2.5,0.6,5.2,0.9,8c0.3,2.7,0.8,5.6,0.9,8.5c0.3,3,0.5,5.8,0.9,8.9c0.2,1.6,0.3,3,0.4,4.5c0.1,1.6,0.3,3,0.4,4.5
				c0.3,2.3,0.5,4.7,0.8,6.8c0.2,2.3,0.4,4.7,0.8,6.8c0.2,2.3,0.5,4.7,0.8,6.8l0.4,6.8c0,0.4,0.1,0.9,0.1,1.3s0.1,0.8,0.2,0.9
				c0.1,0.2,0.2,0.3,0.2,0.3C568.4,298.1,570,298.3,571.7,296.6z"/>
		</g>
		<g>
			<path style="fill:#588C38;stroke:#C9CEC6;stroke-width:4;stroke-miterlimit:10;" d="M540.3,195.9c0.1-0.1,0.1-0.2,0.1-0.4
				c0-0.2-0.1-0.5-0.2-0.9c-0.1-0.4-0.3-0.8-0.4-1.3c-0.8-2.1-1.8-4.1-2.6-6.3c-0.4-1.1-0.8-2.1-1.3-3.1l-1.6-3
				c-0.9-2.1-2.1-4.1-3-6.2c-1.1-2.1-2.3-4-3.5-6c-3-5.2-6.4-10.1-9.9-14.8c-1.7-2.3-3.5-4.3-5.2-6.4c-0.8-0.9-1.8-2-2.6-3
				c-0.4-0.4-0.8-0.9-1.3-1.3c-0.4-0.4-0.8-0.8-1.3-1.3c-2.2-2.1-4.3-3.9-6.1-5.4c-0.8-0.6-1.6-1.2-2.2-1.8
				c-0.8-0.5-1.3-0.9-2.1-1.3c-1.3-0.8-2.5-1.6-3.7-2.1c-2.3-1.1-4.1-1.7-5.9-2.1c-3.3-0.8-5.1,0.5-8.5-0.4
				c-0.9-0.3-0.9,0.1-1.6,0.2c-0.1,0-0.2,0.1,0,0.4c0.1,0.2,0.4,0.5,0.6,0.8c6.2,6.5,12.4,13.8,18.2,20.5c0.9,1.1,1.9,2.4,2.9,3.6
				c1,1.2,1.9,2.4,2.9,3.6s1.9,2.4,2.9,3.5c0.8,1.2,1.8,2.4,2.6,3.6c1.8,2.4,3.6,4.7,5.2,6.8c1.7,2.3,3.3,4.5,4.8,6.7
				c2,2.4,3.6,5.2,5.2,7.2c1.3,1.8,2.7,3.4,4,4.7c1.2,1.3,2.3,2.6,3.4,3.6c2.1,2,3.9,3.1,5.5,3.7
				C537.7,198.3,539.1,197.5,540.3,195.9z"/>
			<path style="fill:#588C38;stroke:#C9CEC6;stroke-width:4;stroke-miterlimit:10;" d="M549.3,191.6c0.6-1.6,0.8-3.7,0.8-6.8
				c-0.1-1.6-0.3-3.4-0.6-5.4c-0.4-2-0.9-4.1-1.8-6.5c-0.4-1.3-0.9-3-1.6-4.5c-0.3-0.8-0.5-1.7-0.8-2.4c-0.3-0.8-0.6-1.7-0.9-2.4
				c-1.2-2.7-2.5-5.6-3.8-8.5c-0.6-1.3-1.3-2.9-2.2-4.2c-0.8-1.3-1.6-2.9-2.4-4.3c-0.8-1.3-1.7-3-2.5-4.3s-1.9-2.9-2.7-4.3
				c-0.9-1.3-1.9-2.9-2.9-4.3c-0.9-1.3-1.9-3-3-4.2c-5.9-8.2-12.6-16.8-19.9-24.3c-0.3-0.3-0.5-0.5-0.8-0.8
				c-0.4-0.3-0.4-0.2-0.4-0.1c-0.1,0.5-0.1,1.1-0.2,1.6c-0.3,2.5-0.3,5.4,0.3,8.9c0.3,1.9,0.6,3.9,1.6,6.4c0.4,1.2,0.9,2.6,1.7,4
				c0.3,0.8,0.6,1.6,1.1,2.3c0.4,0.8,0.8,1.8,1.3,2.6c1.1,2.2,2.4,4.7,3.9,7.5c0.3,0.5,0.6,1.1,0.9,1.7c0.3,0.5,0.6,1.1,0.9,1.8
				c0.6,1.2,1.3,2.3,2,3.5c0.6,1.2,1.3,2.4,2.1,3.6c0.8,1.2,1.3,2.4,2.1,3.7c1.3,2.6,2.9,5.2,4.3,7.8l1.1,2c0.3,0.6,0.6,1.3,1.1,2
				c0.6,1.3,1.3,2.6,2.2,3.9c1.1,2.1,2.3,4,3.5,6c1.1,2.1,2.2,4,3.3,6.1l1.7,3c0.5,0.9,1.1,2,1.7,3l3,6.2c0.2,0.4,0.4,0.8,0.6,1.2
				c0.2,0.3,0.4,0.6,0.5,0.8c0.2,0.2,0.3,0.2,0.4,0.2C546.8,194.4,548.5,193.7,549.3,191.6z"/>
		</g>
		<g>
			<path style="fill:#588C38;stroke:#C9CEC6;stroke-width:4;stroke-miterlimit:10;" d="M481.2,110.8c0-0.1,0-0.2-0.1-0.4
				c-0.1-0.2-0.3-0.5-0.5-0.8c-0.2-0.3-0.5-0.6-0.8-0.9c-1.7-1.7-3.1-3.3-4.8-4.8c-1.8-1.6-3.4-3-5.2-4.7c-3.4-3.1-7.2-5.9-10.7-8.7
				c-1.2-0.8-2.4-1.9-3.6-2.6c-1.2-0.8-2.5-1.7-3.7-2.5c-1.2-0.8-2.5-1.7-3.7-2.4c-1.2-0.8-2.4-1.7-3.7-2.3
				c-5.1-2.7-9.8-5.5-14.2-7.1c-2.9-1.1-5.4-2.1-7.7-2.7c-3.8-1.1-6.8-1.6-9.4-1.8c-1.2-0.1-2.4-0.1-3.4,0s-2,0.2-2.9,0.3
				c-3.4,0.5-4.4,2.4-8,2.9c-1.1,0.1-0.8,0.5-1.3,0.8c-0.1,0.1-0.2,0.2,0.2,0.4c0.2,0.1,0.5,0.3,0.8,0.4c2.1,0.9,4.1,1.9,6.2,2.9
				c2.1,0.9,4.1,2.1,6.2,3c2.1,0.9,4.1,2,6.2,3c2,1.1,4,2.1,6,3.1c10.7,5.8,21.3,11.9,30.2,17.6c1.3,0.8,2.7,1.7,3.9,2.4
				c1.3,0.8,2.5,1.6,3.6,2.2c2,1.1,3.8,2.1,5.5,2.9c0.8,0.4,1.7,0.8,2.4,1.1c0.8,0.3,1.3,0.6,2.2,0.8c2.7,1.1,5,1.3,6.4,1.3
				C479.7,114.1,480.9,112.8,481.2,110.8z"/>
			<path style="fill:#588C38;stroke:#C9CEC6;stroke-width:4;stroke-miterlimit:10;" d="M488,103.5c0-1.7-0.5-3.8-2-6.7
				c-0.3-0.6-0.8-1.3-1.2-2.3c-0.4-0.8-0.9-1.6-1.6-2.4c-1.1-1.7-2.5-3.5-4.1-5.5c-0.8-1.1-2-2.4-3.1-3.6c-1.2-1.2-2.4-2.4-3.6-3.6
				c-8.5-8.5-19.4-17-31.1-24.3c-2.2-1.3-4.4-2.7-6.5-4c-1.1-0.6-2.3-1.3-3.4-2c-1.2-0.6-2.3-1.2-3.5-1.9c-2.3-1.2-4.7-2.5-7-3.7
				c-2.4-1.1-4.8-2.2-7.3-3.3c-0.3-0.1-0.8-0.3-1.1-0.4c-0.5-0.1-0.5,0-0.4,0.1c0.1,0.5,0.2,0.9,0.3,1.6c0.6,2.4,1.8,5.2,3.7,8.1
				c0.9,1.6,2.2,3.3,3.9,5.4c1.8,2,3.9,4.2,7.3,6.8c1.9,1.7,4,3.5,6.4,5.4c4.1,2.9,8.5,6.5,13.2,10c2.3,1.8,4.7,3.7,6.8,5.6
				c1.2,0.8,2.4,1.9,3.6,2.7s2.3,2,3.5,2.9c3.6,3,7.5,5.7,11,8.6c1.8,1.3,3.6,2.9,5.4,4.3c1.8,1.3,3.5,3,5.2,4.5
				c0.3,0.3,0.8,0.6,1.1,0.8c0.3,0.2,0.6,0.4,0.8,0.5c0.2,0.1,0.3,0.1,0.4,0.1C486.6,106.9,488,105.9,488,103.5z"/>
		</g>
		<g>
			<path style="fill:#588C38;stroke:#C9CEC6;stroke-width:4;stroke-miterlimit:10;" d="M394.2,54.9c0-0.1,0-0.2-0.2-0.3
				c-0.2-0.1-0.4-0.3-0.8-0.5c-0.3-0.2-0.8-0.4-1.2-0.5l-3.1-1.3l-3.1-1.2c-2.2-0.8-4.3-1.6-6.4-2.3c-2.2-0.8-4.4-1.3-6.5-2.1
				c-2.2-0.6-4.5-1.2-6.7-1.9c-1.3-0.4-3-0.8-4.4-0.9c-1.3-0.3-3-0.5-4.4-0.8c-3-0.5-5.8-1.2-8.6-1.3c-2.9-0.3-5.6-0.6-8.3-0.8
				c-2.6-0.3-5.2-0.2-7.7-0.2c-3,0-5.8,0.2-8.1,0.4c-3.9,0.5-7,1.2-9.3,2.1c-2.4,0.8-4.1,1.8-5.6,2.7c-2.9,1.9-3.1,3.9-6.3,5.7
				c-0.9,0.5-0.5,0.8-0.8,1.2c-0.1,0.1-0.1,0.2,0.3,0.3c0.2,0,0.6,0.1,0.9,0.1c2.3,0.1,4.7,0.1,6.8,0.2c2.3,0.1,4.7,0.3,6.8,0.4
				c2.3,0.1,4.7,0.2,6.8,0.4c2.3,0.2,4.5,0.4,6.8,0.6c1.6,0.1,3,0.2,4.7,0.3c1.6,0.2,3,0.3,4.5,0.5c3,0.4,6,0.6,8.9,1.1
				c5.8,0.9,11.5,1.6,16.7,2.5c1.6,0.2,3,0.4,4.7,0.6c1.6,0.2,3,0.3,4.3,0.5c4.5,0.6,8.2,0.8,11.2,0.5c3,0,5.1-0.4,6.4-1.2
				C394,58.4,394.5,56.8,394.2,54.9z"/>
			<path style="fill:#588C38;stroke:#C9CEC6;stroke-width:4;stroke-miterlimit:10;" d="M397.5,45.6c-0.6-1.6-2-3.4-4.4-5.5
				c-2.4-2-5.7-4.2-10.2-6.7c-0.6-0.3-1.3-0.8-2-1.1c-0.8-0.3-1.6-0.6-2.3-0.9c-1.6-0.6-3.1-1.3-4.8-2c-5.5-2.4-11.6-4.1-18.1-6.1
				c-3.1-0.8-6.5-1.7-9.9-2.4c-1.7-0.3-3.4-0.8-5.1-1.1c-1.8-0.3-3.4-0.5-5.2-0.8c-2.5-0.4-5.1-0.8-7.7-1.2
				c-2.6-0.4-5.2-0.5-7.9-0.8c-2.6-0.2-5.2-0.4-7.9-0.6c-2.6-0.1-5.2-0.2-7.9-0.2c-0.4,0-0.8,0-1.1,0c-0.5,0.1-0.4,0.2-0.4,0.3
				c0.3,0.4,0.6,0.8,0.9,1.3c1.6,2,3.6,4,6.5,6c1.6,0.9,3.3,2.3,5.7,3.5c2.4,1.2,5.4,2.4,9.3,3.5c2.3,0.8,5.1,1.7,8,2.5
				c5.1,1.1,10.4,2.7,16,4.1c2.9,0.6,5.7,1.7,8.5,2.4c1.3,0.4,2.9,0.8,4.4,1.2l2.2,0.5l2.2,0.6c2.3,0.6,4.5,1.3,6.8,1.9
				c1.1,0.3,2.3,0.5,3.4,0.8c1.1,0.3,2.2,0.6,3.3,0.9c2.2,0.6,4.4,1.3,6.7,2l3.3,0.9l3.3,1.2c0.4,0.1,0.8,0.3,1.3,0.4
				c0.5,0.1,0.8,0.2,0.9,0.2c0.1,0,0.3,0,0.4-0.1C397.6,49.2,398.3,47.7,397.5,45.6z"/>
		</g>
		<g>
			<path style="fill:#588C38;stroke:#C9CEC6;stroke-width:4;stroke-miterlimit:10;" d="M292.1,36.8c-0.1-0.1-0.1-0.2-0.3-0.2
				c-0.2-0.1-0.5-0.1-0.9-0.1c-0.4,0-0.8,0-1.3,0c-1.1,0-2.3,0-3.4,0s-2.3,0-3.4,0.1c-2.3,0.1-4.7,0.2-6.8,0.3l-3.5,0.2l-1.8,0.1
				l-1.8,0.2c-2.3,0.3-4.7,0.6-6.8,0.8l-4.5,0.6c-1.3,0.3-3,0.5-4.4,0.8c-3,0.6-5.8,1.3-8.5,2c-2.7,0.8-5.4,1.7-8,2.4
				c-2.5,0.8-5,1.7-7.2,2.6c-2.7,1.2-5.2,2.4-7.4,3.6c-1.8,0.8-3.3,1.9-4.5,2.7c-1.3,0.8-2.4,1.9-3.3,2.6c-1.9,1.7-3,3.3-4.1,4.7
				c-2,2.9-1.3,5-3.6,7.7c-0.6,0.8-0.2,0.9-0.3,1.6c0,0.1,0,0.2,0.4,0.1c0.2-0.1,0.6-0.2,0.9-0.3c1.1-0.4,2.1-0.8,3.1-1.2l1.7-0.6
				l1.7-0.5c2.2-0.8,4.4-1.6,6.5-2.3c1.1-0.4,2.2-0.8,3.3-1.2c1.1-0.3,2.2-0.6,3.3-0.9c2.2-0.6,4.3-1.3,6.4-2.1l2.2-0.6l2.2-0.6
				c1.3-0.4,3-0.8,4.4-1.2c1.3-0.4,2.9-0.8,4.3-1.3c1.3-0.4,2.9-0.8,4.3-1.1c2.9-0.8,5.7-1.3,8.5-2.2c2.7-0.6,5.5-1.2,8-2
				c1.6-0.4,3-0.8,4.5-1.2c1.3-0.3,2.9-0.6,4.1-0.9c2.2-0.6,4.1-1.2,5.9-1.9c0.8-0.3,1.8-0.6,2.5-0.9c0.8-0.3,1.6-0.5,2.2-0.8
				c2.6-1.2,4.5-2.4,5.6-3.6C293.4,40.2,293.4,38.4,292.1,36.8z"/>
			<path style="fill:#588C38;stroke:#C9CEC6;stroke-width:4;stroke-miterlimit:10;" d="M291.7,27c-1.1-1.2-3.1-2.3-6.1-3.4
				c-0.8-0.2-1.6-0.5-2.4-0.8c-0.8-0.2-1.8-0.4-2.7-0.5c-2-0.3-4.3-0.6-6.8-0.8c-1.3-0.1-3-0.2-4.7-0.3c-1.7,0-3.5,0-5.2,0
				c-3,0-6,0.1-9.3,0.3c-3.1,0.3-6.4,0.6-9.8,0.9c-1.7,0.2-3.4,0.3-5.1,0.6c-1.7,0.3-3.4,0.5-5.1,0.8c-1.7,0.3-3.4,0.6-5.2,0.9
				l-2.5,0.4c-0.8,0.2-1.7,0.4-2.5,0.6c-2.5,0.6-5,1.2-7.6,1.9c-1.3,0.3-2.5,0.6-3.8,0.9c-1.2,0.4-2.5,0.8-3.8,1.2
				c-2.5,0.8-5.1,1.7-7.6,2.4l-1.9,0.6l-1.9,0.8c-1.2,0.4-2.4,0.9-3.6,1.3c-0.3,0.1-0.8,0.3-1.1,0.4c-0.4,0.2-0.3,0.3-0.2,0.4
				c0.4,0.3,0.8,0.5,1.3,0.8c2.2,1.3,4.8,2.3,8.3,3c1.9,0.4,3.9,0.8,6.5,1.1c1.3,0.1,2.7,0.1,4.4,0.1c1.7-0.1,3.4-0.2,5.5-0.3
				c2.5-0.1,5.2-0.4,8.3-0.8c2.5-0.4,5.2-0.8,7.9-1.1c2.7-0.3,5.6-0.8,8.5-1.1c3-0.3,5.8-0.5,8.9-0.9c1.6-0.2,3-0.4,4.5-0.5
				c1.6-0.1,3-0.3,4.5-0.4c2.3-0.2,4.7-0.5,6.8-0.8c1.1-0.2,2.3-0.3,3.4-0.4l3.4-0.3c2.3-0.2,4.7-0.5,6.8-0.8
				c1.1-0.1,2.3-0.2,3.4-0.3l3.5-0.2c0.4,0,0.9-0.1,1.3-0.1c0.4,0,0.8-0.1,0.9-0.2c0.2-0.1,0.3-0.2,0.3-0.2
				C293.3,30.3,293.3,28.5,291.7,27z"/>
		</g>
		<g>
			<path style="fill:#588C38;stroke:#C9CEC6;stroke-width:4;stroke-miterlimit:10;" d="M191.1,59.3c-0.1-0.1-0.2-0.1-0.4-0.1
				c-0.2,0-0.5,0.1-0.9,0.2c-0.4,0.1-0.8,0.3-1.3,0.4c-2.1,0.8-4.3,1.8-6.3,2.6c-2.1,0.9-4.1,2-6.2,3c-4.1,2-8.2,4.2-12.1,6.7
				c-1.3,0.8-2.6,1.6-3.8,2.3c-1.2,0.8-2.5,1.7-3.7,2.5c-2.4,1.8-5,3.3-7.2,5.2c-2.2,1.8-4.4,3.6-6.4,5.4c-0.9,0.8-2,1.8-3,2.6
				c-0.8,0.8-1.8,1.8-2.6,2.6c-2.1,2.2-3.9,4.2-5.4,6c-2.5,3.1-4,5.8-5.2,8.1c-1.1,2.3-1.7,4.1-2,5.9c-0.8,3.4,0.6,5.1-0.4,8.5
				c-0.3,0.9,0.2,0.9,0.2,1.6c0,0.1,0.1,0.2,0.4,0c0.2-0.1,0.5-0.4,0.8-0.6c1.7-1.6,3.3-3.1,5-4.7c1.8-1.6,3.4-3,5.2-4.7
				c0.8-0.8,1.8-1.6,2.5-2.3c0.8-0.8,1.7-1.6,2.6-2.3c1.8-1.3,3.5-3,5.2-4.3c9.4-7.8,19.1-15.2,27.6-21.4c1.2-0.9,2.5-1.9,3.7-2.9
				c1.2-0.8,2.4-1.8,3.4-2.5c7.2-5.8,11.1-9.9,11.9-12.9C193.5,61.9,192.8,60.3,191.1,59.3z"/>
			<path style="fill:#588C38;stroke:#C9CEC6;stroke-width:4;stroke-miterlimit:10;" d="M186.8,50.3c-3-1.2-9.2-1.3-18.9,1.9
				c-1.3,0.4-3,0.9-4.5,1.6c-1.6,0.6-3.1,1.3-4.7,2.1c-11.1,4.7-23,11.6-34.2,19.7c-2.1,1.6-4.1,3-6.2,4.7l-1.6,1.2l-1.6,1.2
				c-0.9,0.8-2.1,1.7-3,2.5c-2.1,1.8-4,3.4-6,5.2c-2,1.9-3.8,3.6-5.7,5.5c-0.3,0.3-0.5,0.5-0.8,0.8C99.4,97,99.5,97,99.6,97
				c0.5,0.1,1.1,0.1,1.7,0.2c2.5,0.3,5.4,0.3,8.9-0.3c1.9-0.3,3.9-0.8,6.4-1.7c2.5-0.8,5.5-2.1,9-4.1c2.2-1.1,4.7-2.4,7.5-3.9
				c1.1-0.6,2.2-1.3,3.3-2.1c1.1-0.6,2.3-1.3,3.5-2.1c2.4-1.3,4.8-2.9,7.4-4.2c2.5-1.3,5.2-2.9,7.8-4.2c1.3-0.8,2.6-1.6,3.9-2.3
				c1.3-0.8,2.6-1.3,3.9-2.2c2.1-1.1,4-2.3,6-3.5l1.6-0.8l1.6-0.8l3-1.7c2-1.1,4-2.3,6-3.4c2-1.1,4-2.1,6.1-3.1
				c0.4-0.2,0.8-0.4,1.2-0.6c0.3-0.2,0.6-0.4,0.8-0.5c0.2-0.2,0.2-0.3,0.2-0.4C189.5,52.8,188.9,51.2,186.8,50.3z"/>
		</g>
		<g>
			<path style="fill:#588C38;stroke:#C9CEC6;stroke-width:4;stroke-miterlimit:10;" d="M106.5,118.8c-0.1,0-0.2,0-0.4,0.1
				s-0.5,0.3-0.8,0.5c-0.3,0.2-0.6,0.5-0.9,0.8l-2.4,2.4l-2.3,2.5c-1.6,1.8-3,3.4-4.7,5.2c-1.6,1.7-3,3.5-4.4,5.4
				c-1.3,1.9-2.9,3.6-4.3,5.5c-1.8,2.4-3.4,5-5.1,7.4c-0.8,1.2-1.7,2.5-2.4,3.7c-0.8,1.2-1.3,2.5-2.2,3.7c-1.3,2.5-2.7,5-3.9,7.4
				c-1.2,2.4-2.2,4.8-3,6.9c-1.1,2.9-2.1,5.4-2.6,7.7c-1.1,3.8-1.6,6.8-1.7,9.4c-0.1,2.5,0.2,4.5,0.4,6.2c0.5,3.4,2.4,4.3,2.9,8
				c0.1,1.1,0.5,0.8,0.8,1.3c0.1,0.1,0.2,0.2,0.4-0.2c0.1-0.2,0.3-0.5,0.4-0.8c0.9-2.1,1.9-4.1,2.9-6.2c0.4-1.1,0.8-2.1,1.3-3.1
				l1.6-3c0.9-2.1,2-4.1,3-6.2c1-2.2,2.1-4,3.1-6c2.7-5.5,5.9-10.7,8.6-15.8c1.6-2.5,3-5.1,4.4-7.5c0.8-1.2,1.3-2.4,2.1-3.6
				c0.8-1.2,1.3-2.3,2.1-3.4c1.7-2.6,3.1-5.5,4.5-7.7c2.3-3.9,3.8-7.4,4.8-10.1c0.9-2.7,1.3-4.8,1.3-6.4
				C109.7,120.3,108.5,119.1,106.5,118.8z"/>
			<path style="fill:#588C38;stroke:#C9CEC6;stroke-width:4;stroke-miterlimit:10;" d="M99,112.2c-1.7,0-3.8,0.5-6.7,2
				c-2.7,1.3-6.1,3.7-10.1,6.8c-1.1,0.8-2.3,2-3.5,3.1c-1.2,1.2-2.4,2.4-3.6,3.6c-0.9,1.1-2.1,2.2-3.1,3.3c-1.1,1.1-2.1,2.3-3,3.5
				c-2.1,2.4-4.1,5-6.2,7.6c-3.9,5.4-8.1,11-11.6,17c-1.3,2.2-2.7,4.3-4,6.5c-1.2,2.3-2.5,4.7-3.7,6.8c-2.6,4.7-4.7,9.5-6.8,14.2
				c-0.1,0.3-0.3,0.8-0.4,1.1c-0.1,0.4,0,0.5,0.1,0.4c0.5-0.1,0.9-0.2,1.6-0.4c2.5-0.6,5.2-1.8,8.1-3.7c1.7-0.9,3.3-2.3,5.2-3.9
				c2-1.8,4.3-4,6.8-7.2c1.6-2,3.4-4,5.2-6.5c1.6-2.1,3-4.2,4.7-6.4c1.8-2.2,3.5-4.3,5.2-6.8c0.8-1.1,1.8-2.3,2.6-3.5
				c0.8-1.2,1.9-2.3,2.9-3.5c1.9-2.3,3.6-4.8,5.6-7.1c1.3-1.9,2.9-3.6,4.3-5.5c1.3-1.9,2.7-3.7,4.3-5.5c1.3-1.8,2.9-3.6,4.3-5.4
				l2.2-2.7l2.3-2.6c0.3-0.3,0.6-0.8,0.8-1.1c0.2-0.3,0.4-0.6,0.5-0.8c0.1-0.2,0.1-0.3,0.1-0.4C102.6,113.5,101.3,112.2,99,112.2z"
				/>
		</g>
		<g>
			<path style="fill:#588C38;stroke:#C9CEC6;stroke-width:4;stroke-miterlimit:10;" d="M51.3,206.1c-0.1,0-0.2,0-0.3,0.2
				c-0.1,0.2-0.3,0.5-0.5,0.8c-0.2,0.3-0.4,0.8-0.5,1.2c-1.8,4.1-3.1,8.5-4.8,12.8c-1.3,4.3-2.6,8.9-3.8,13.4
				c-0.6,3-1.2,5.9-1.9,8.7c-0.2,1.3-0.5,2.9-0.8,4.3c-0.2,1.3-0.3,2.9-0.5,4.2c-0.3,2.9-0.6,5.6-0.8,8.3c-0.1,2.6-0.1,5.2-0.1,7.7
				c0,3,0.1,5.7,0.5,8.1c0.5,3.9,1.2,6.8,2.1,9.3c0.2,0.5,0.4,1.1,0.6,1.7c0.2,0.5,0.4,0.9,0.8,1.3c0.5,0.8,0.9,1.8,1.6,2.5
				c1.9,2.9,3.9,3,5.7,6.2c0.5,0.8,0.8,0.5,1.2,0.8c0.1,0.1,0.2,0.1,0.3-0.3c0-0.2,0.1-0.6,0.1-0.9c0.2-4.5,0.1-9.2,0.4-13.8
				c0.1-2.3,0.2-4.7,0.3-6.8c0.1-2.3,0.4-4.5,0.5-6.7c0.1-1.6,0.2-3,0.4-4.7l0.2-2.3l0.3-2.3c0.3-3,0.8-5.9,0.9-8.9
				c0.1-1.3,0.4-2.9,0.5-4.3c0.2-1.3,0.4-2.9,0.5-4.2c0.3-2.9,0.6-5.6,1.1-8.1c0.4-3,0.9-6.2,1.2-8.9c1.1-9,0.5-14.8-0.8-17.6
				C54.9,206.3,53.3,205.7,51.3,206.1z"/>
			<path style="fill:#588C38;stroke:#C9CEC6;stroke-width:4;stroke-miterlimit:10;" d="M41.9,202.9c-3.1,1.2-7.3,5.7-12,14.6
				c-1.2,2.5-2.6,5.9-3.9,9c-0.5,1.3-1.2,2.7-1.7,4.2c-0.4,1.3-0.9,3-1.3,4.5c-0.9,3-2,6.1-2.9,9.4c-0.8,3.3-1.6,6.5-2.3,9.8
				c-0.2,0.8-0.3,1.7-0.5,2.5l-0.4,2.5c-0.3,1.8-0.5,3.4-0.8,5.2c-0.3,2.5-0.8,5.1-1.2,7.7c-0.2,2.6-0.5,5.2-0.8,7.9
				c-0.6,5.2-0.6,10.7-0.8,15.7c0,0.4,0,0.8,0,1.1c0.1,0.5,0.2,0.4,0.3,0.4c0.4-0.3,0.8-0.6,1.3-0.9c2-1.6,4-3.6,6-6.5
				c1.1-1.6,2.1-3.3,3.3-5.7c1.2-2.4,2.4-5.4,3.5-9.3c0.6-2.4,1.6-5.1,2.4-8.1c0.5-2.5,1.2-5.1,1.9-7.8c0.8-2.6,1.6-5.4,2.3-8.2
				c0.3-1.3,0.8-2.9,1.1-4.2c0.4-1.3,0.8-2.9,1.2-4.2c0.8-2.9,1.7-5.8,2.3-8.7c1.3-4.5,2.5-9,3.6-13.5c1.3-4.3,2.5-8.9,3.9-13.3
				c0.1-0.4,0.3-0.8,0.4-1.3c0.1-0.4,0.2-0.8,0.2-0.9c0-0.2,0-0.3-0.1-0.4C45.6,202.8,44,202.1,41.9,202.9z"/>
		</g>
		<g>
			<path style="fill:#588C38;stroke:#C9CEC6;stroke-width:4;stroke-miterlimit:10;" d="M34.1,307.9c-0.1,0.1-0.2,0.1-0.2,0.3
				c-0.1,0.2-0.1,0.5-0.1,0.9s0,0.8,0,1.3c0,1.1,0,2.3,0,3.4l0.1,3.4c0.1,2.3,0.2,4.7,0.3,6.8c0.1,1.1,0.1,2.3,0.2,3.4l0.4,3.4
				c0.3,2.3,0.6,4.7,0.8,6.8L36,340l0.4,2.2c0.3,1.3,0.6,3,0.8,4.3c0.3,1.3,0.6,2.9,0.9,4.2c0.1,0.6,0.3,1.3,0.4,2.1
				c0.2,0.6,0.4,1.3,0.5,2.1c1.7,5.5,3.1,10.7,5.2,15c1.2,2.7,2.4,5.2,3.6,7.4c2,3.5,3.8,5.9,5.6,7.8c1.7,1.9,3.1,3,4.7,4
				c2.9,2,4.8,1.3,7.7,3.5c0.8,0.6,0.9,0.2,1.6,0.3c0.1,0,0.2,0,0.1-0.4c-0.1-0.2-0.2-0.6-0.3-0.9c-0.8-2.1-1.7-4.2-2.5-6.3
				c-0.8-2.2-1.6-4.3-2.3-6.4c-0.8-2.2-1.7-4.2-2.3-6.4c-0.6-2.2-1.3-4.2-2.1-6.4c-0.4-1.3-0.9-2.9-1.3-4.3c-0.4-1.3-0.8-3-1.2-4.3
				c-0.4-1.3-0.8-2.9-1.3-4.2c-0.5-1.3-0.8-2.9-1.2-4.2c-1.3-5.7-3-11.2-4.3-16.3c-0.4-1.6-0.8-3-1.2-4.5c-0.2-0.8-0.4-1.3-0.6-2.2
				c-0.2-0.6-0.3-1.3-0.5-2c-1.2-4.3-2.5-7.9-3.8-10.5c-1.2-2.6-2.4-4.5-3.6-5.5C37.5,306.8,35.8,306.9,34.1,307.9z"/>
			<path style="fill:#588C38;stroke:#C9CEC6;stroke-width:4;stroke-miterlimit:10;" d="M24.2,308.7c-1.2,1.2-2.3,3.1-3.3,6.1
				c-0.8,3-1.7,6.8-2.2,11.9c-0.1,0.8-0.1,1.3-0.2,2.3c0,0.8,0,1.7,0,2.4c0,1.7,0,3.5,0,5.2c0.1,3,0,6.1,0.4,9.2
				c0.3,3.1,0.6,6.4,0.9,9.7c0.1,1.7,0.4,3.3,0.8,5.1c0.3,1.7,0.5,3.4,0.8,5.1s0.6,3.4,0.9,5.2c0.3,1.7,0.8,3.4,1.2,5.1
				c0.6,2.5,1.2,5,1.9,7.6c0.3,1.3,0.6,2.5,1.1,3.8c0.4,1.2,0.8,2.5,1.2,3.8c0.8,2.5,1.7,5.1,2.5,7.6c0.9,2.5,1.9,5,2.9,7.4
				c0.1,0.3,0.3,0.8,0.4,1.1c0.2,0.4,0.3,0.3,0.4,0.2c0.2-0.4,0.5-0.8,0.8-1.3c1.2-2.2,2.3-5,3-8.3c0.3-1.9,0.8-3.9,0.9-6.5
				c0.2-2.6,0.1-5.8-0.4-9.8c-0.1-2.5-0.4-5.2-0.8-8.3c-0.9-5.1-1.6-10.7-2.4-16.3c-0.1-0.8-0.2-1.3-0.3-2.2
				c-0.1-0.8-0.1-1.3-0.2-2.2c-0.2-1.3-0.3-3-0.5-4.5c-0.2-1.6-0.4-3-0.5-4.5c-0.1-0.8-0.2-1.6-0.3-2.2l-0.2-2.3
				c-0.2-2.3-0.5-4.7-0.8-6.8c-0.2-1.1-0.3-2.3-0.5-3.4c-0.2-1.1-0.2-2.3-0.4-3.4c-0.2-2.3-0.5-4.7-0.8-6.8l-0.4-3.4
				c-0.1-1.1-0.1-2.3-0.2-3.4c0-0.4-0.1-0.9-0.1-1.3s-0.1-0.8-0.2-0.9c-0.1-0.2-0.2-0.3-0.2-0.3C27.6,307.1,25.9,307,24.2,308.7z"/>
		</g>
		<g>
			<path style="fill:#588C38;stroke:#C9CEC6;stroke-width:4;stroke-miterlimit:10;" d="M57.4,408.6c-0.1,0.1-0.1,0.2-0.1,0.4
				c0,0.2,0.1,0.5,0.2,0.9c0.1,0.4,0.3,0.8,0.4,1.3c0.4,1.1,0.8,2.1,1.3,3.1c0.4,0.9,0.9,2.1,1.3,3c0.9,2.1,2,4.1,3,6.2
				c0.9,2.1,2.1,4,3.3,6.1c1.2,2,2.3,4,3.5,6c6.3,10.1,13.7,19.8,20.9,26.4c1.1,1.1,2.2,2,3.1,3c0.5,0.4,0.9,0.8,1.6,1.3
				c0.5,0.4,0.9,0.8,1.6,1.1c3.1,2.4,5.8,4,8.1,5.1c1.1,0.5,2.2,0.8,3.1,1.2c0.9,0.3,2,0.5,2.9,0.6c3.3,0.6,5.1-0.6,8.5,0.3
				c0.9,0.3,0.9-0.2,1.6-0.2c0.1,0,0.2-0.1,0-0.4c-0.1-0.2-0.4-0.5-0.6-0.8c-3-3.4-6.4-6.5-9.4-10c-1.6-1.8-3-3.4-4.7-5.1
				c-1.6-1.8-3-3.5-4.4-5.2c-4-4.7-7.7-9.4-11.4-13.9c-3.5-4.7-7.2-9-10.2-13.5c-0.9-1.2-1.9-2.5-2.9-3.7c-0.9-1.2-1.9-2.3-2.6-3.4
				c-2.9-3.6-5.4-6.2-7.6-8.2c-2.1-2-3.9-3.1-5.5-3.6C60,406.1,58.5,406.9,57.4,408.6z"/>
			<path style="fill:#588C38;stroke:#C9CEC6;stroke-width:4;stroke-miterlimit:10;" d="M48.5,413.1c-0.6,1.6-0.8,3.8-0.6,6.9
				c0.3,3,1.2,6.9,2.6,11.9c0.2,0.6,0.4,1.3,0.8,2.2c0.3,0.8,0.6,1.6,0.8,2.3c0.6,1.6,1.3,3.1,2.1,4.7c2.3,5.5,5.4,11.1,8.6,17
				c1.8,2.9,3.5,5.7,5.4,8.6c1.8,3,3.8,5.7,5.9,8.5c1.6,2.1,3,4.1,4.7,6.2c1.7,2,3.3,4,5.1,6.1c3.3,4.1,7,7.9,10.7,11.7
				c0.3,0.3,0.5,0.5,0.8,0.8c0.4,0.3,0.4,0.2,0.4,0.1c0.1-0.5,0.1-1.1,0.2-1.7c0.3-2.5,0.3-5.4-0.4-8.9c-0.2-0.8-0.3-1.9-0.6-3
				c-0.3-0.9-0.6-2.2-0.9-3.4c-0.8-2.5-2.1-5.5-4.1-9c-0.3-0.5-0.6-1.1-0.8-1.7c-0.3-0.5-0.6-1.2-0.9-1.9c-0.6-1.2-1.3-2.5-2.2-3.8
				c-5.6-8.5-11.2-19.3-17.4-29.6c-1.1-2.1-2.3-4-3.5-6l-1.8-3c-0.6-0.9-1.1-2-1.8-3c-1.1-2-2.3-4-3.4-6c-0.5-0.9-1.1-2-1.7-3
				l-1.6-3c-0.2-0.4-0.4-0.8-0.6-1.2c-0.2-0.3-0.4-0.6-0.5-0.8c-0.2-0.2-0.3-0.2-0.4-0.2C51,410.4,49.4,410.9,48.5,413.1z"/>
		</g>
		<g>
			<path style="fill:#588C38;stroke:#C9CEC6;stroke-width:4;stroke-miterlimit:10;" d="M117.8,492.4c0,0.1,0,0.2,0.1,0.4
				c0.1,0.2,0.3,0.5,0.5,0.8c0.2,0.3,0.5,0.6,0.8,0.9c3.3,3.1,6.7,6.2,10.1,9.3c3.6,2.9,7.2,5.8,11,8.5c5,3.4,9.9,6.8,14.9,9.5
				c1.2,0.6,2.5,1.3,3.7,2.1c1.2,0.6,2.4,1.3,3.6,1.9c2.4,1.1,4.8,2.1,7,3c1.3,0.5,2.7,1.1,4,1.6c1.3,0.4,2.5,0.8,3.7,0.9
				c3.8,1.1,6.8,1.7,9.3,1.7c2.5,0,4.5-0.2,6.2-0.5c3.3-0.6,4.4-2.4,7.9-2.9c1.1-0.1,0.8-0.5,1.3-0.8c0.1-0.1,0.2-0.2-0.2-0.4
				c-0.2-0.1-0.5-0.2-0.8-0.4c-2.1-0.9-4.1-1.9-6.2-2.9c-2.1-0.9-4.3-1.8-6.3-2.9c-2.1-0.9-4.1-2-6.2-3c-0.9-0.4-2.1-0.9-3-1.3
				c-0.9-0.5-2-1.1-3-1.6c-11-5.4-21.3-11.7-30.4-17c-2.6-1.6-5.4-3.3-7.8-4.3c-8-4.5-13.5-6.1-16.7-5.9
				C119.2,489.2,118.1,490.4,117.8,492.4z"/>
			<path style="fill:#588C38;stroke:#C9CEC6;stroke-width:4;stroke-miterlimit:10;" d="M111.2,500c-0.1,3.4,2.5,8.9,9,16.7
				c1.9,2.1,4.5,4.7,6.8,7.1c8.6,8.1,19.5,16.7,31.5,23.8c1.1,0.6,2.2,1.3,3.3,2c1.1,0.6,2.3,1.3,3.4,1.9c2.3,1.2,4.7,2.5,6.8,3.7
				c2.3,1.3,4.7,2.3,7.2,3.5c2.4,1.1,4.8,2.2,7.3,3.3c0.3,0.2,0.8,0.3,1.1,0.4c0.5,0.1,0.5,0,0.4-0.1c-0.1-0.5-0.3-0.9-0.4-1.6
				c-0.6-2.4-1.9-5.2-3.7-8.1c-0.9-1.6-2.2-3.3-4-5.2c-1.8-2-4-4.2-7.3-6.8c-0.9-0.8-2-1.7-3-2.4c-1.1-0.8-2.3-1.8-3.5-2.7
				c-2.1-1.6-4.3-3-6.4-4.7c-1.1-0.8-2.2-1.7-3.4-2.5c-1.1-0.8-2.3-1.8-3.4-2.6c-4.7-3.4-9.3-7.4-14.2-10.8
				c-3.7-2.9-7.4-5.7-11.1-8.5c-3.6-3-7.3-5.7-10.7-8.6c-0.3-0.3-0.8-0.6-1.1-0.8c-0.3-0.2-0.6-0.4-0.8-0.5
				c-0.2-0.1-0.3-0.1-0.4-0.1C112.4,496.4,111.2,497.7,111.2,500z"/>
		</g>
		<g>
			<path style="fill:#588C38;stroke:#C9CEC6;stroke-width:4;stroke-miterlimit:10;" d="M205.6,546.8c0,0.1,0,0.2,0.2,0.3
				c0.2,0.1,0.5,0.3,0.8,0.5s0.8,0.3,1.2,0.5c2.1,0.8,4.3,1.7,6.3,2.4c2.2,0.8,4.3,1.7,6.4,2.3c2.2,0.6,4.4,1.3,6.7,2
				c2.2,0.6,4.5,1.3,6.7,1.8c3,0.6,5.9,1.2,8.7,1.9c1.3,0.3,3,0.4,4.4,0.6s2.9,0.3,4.3,0.5c5.7,0.8,11.1,0.8,15.9,0.8
				c3,0,5.7-0.3,8.1-0.6c3.9-0.5,6.8-1.2,9.3-2.1c2.3-0.9,4-2,5.6-3c2.9-1.9,3-3.9,6.2-5.7c0.8-0.5,0.5-0.8,0.8-1.2
				c0.1-0.1,0.1-0.2-0.3-0.3c-0.2,0-0.6-0.1-0.9-0.1c-2.3-0.1-4.7-0.1-6.8-0.2c-2.3,0-4.7,0-6.8-0.2c-2.3-0.1-4.7-0.2-6.8-0.3
				c-1.1,0-2.3-0.1-3.4-0.1c-1.1-0.1-2.2-0.2-3.3-0.3c-3-0.2-6-0.5-9-0.8c-3-0.3-5.9-0.8-8.9-0.9c-1.3-0.2-3-0.2-4.4-0.4
				s-2.9-0.4-4.3-0.5c-2.9-0.3-5.6-0.6-8.2-0.9c-3-0.4-6.2-0.9-8.7-1.2c-1.1-0.1-2.2-0.1-3.3-0.2c-0.9-0.1-2-0.2-3-0.2
				c-1.9-0.1-3.5-0.1-5,0c-3,0.2-5.2,0.8-6.4,1.3C205.7,543.2,205.2,544.8,205.6,546.8z"/>
			<path style="fill:#588C38;stroke:#C9CEC6;stroke-width:4;stroke-miterlimit:10;" d="M202.4,556.2c0.6,1.6,2.1,3.3,4.5,5.2
				c1.2,0.9,2.6,2.1,4.4,3.1c0.8,0.5,1.8,1.1,2.7,1.8c0.9,0.5,2.1,1.1,3.1,1.7c2.5,1.2,5.9,2.6,9,3.9c2.7,1.1,5.7,2,8.7,3
				c1.6,0.4,3,0.9,4.7,1.3c1.6,0.5,3.1,0.8,4.8,1.2c3.3,0.8,6.5,1.6,9.9,2.3c3.4,0.6,6.8,1.2,10.2,1.8c1.2,0.2,2.5,0.4,3.8,0.6
				c1.3,0.1,2.5,0.3,3.8,0.4c2.6,0.2,5.2,0.5,7.9,0.8c2.6,0.3,5.2,0.3,7.9,0.4c2.6,0.1,5.2,0.1,7.9,0.2c0.4,0,0.8,0,1.1,0
				c0.5-0.1,0.4-0.2,0.4-0.3c-0.3-0.4-0.6-0.8-0.9-1.3c-1.6-2-3.6-4-6.5-6c-1.6-1.1-3.3-2.2-5.7-3.3c-2.4-1.1-5.4-2.4-9.3-3.5
				c-2.4-0.8-5.1-1.3-8.1-2.2c-2.5-0.5-5.1-1.2-7.8-1.9c-0.6-0.1-1.3-0.3-2.1-0.4c-0.6-0.2-1.3-0.3-2.1-0.5
				c-1.3-0.3-2.7-0.8-4.1-1.1c-1.5-0.3-2.9-0.8-4.3-1.1c-1.3-0.3-2.9-0.6-4.3-1.1c-2.9-0.8-5.8-1.7-8.7-2.3
				c-2.3-0.5-4.5-1.2-6.8-1.8c-2.2-0.5-4.5-1.2-6.7-1.8c-2.3-0.5-4.4-1.2-6.7-1.9l-6.5-2c-0.4-0.1-0.8-0.2-1.3-0.3
				c-0.4-0.1-0.8-0.2-0.9-0.2c-0.2,0-0.3,0-0.4,0.1C202.4,552.5,201.5,554.1,202.4,556.2z"/>
		</g>
	</g>
</g>
<g id="tent">
	<path style="fill:#21421D;stroke:#FFFFFF;stroke-width:2;stroke-miterlimit:10;" d="M296.6,100.8c0,0-75.8,124.8-230,213
		c-0.3,0.2-0.4,0.2-0.8,0.3c-1.8,1.2-2.9,3.6-2.9,6c0,3.6,2.7,6.9,6.2,6.9h36C233.4,224.9,296.6,100.8,296.6,100.8z"/>
	<path style="fill:#21421D;stroke:#FFFFFF;stroke-width:2;stroke-miterlimit:10;" d="M487.7,327.1h35.9h0.3c3.4,0,6.2-3.4,6.2-7.1
		c0-2.1-0.9-4.2-2.4-5.4c-0.5-0.3-1.2-0.8-1.8-1.2c-153.9-88.2-229.2-212.6-229.2-212.6S359.5,224.9,487.7,327.1z"/>
	<path style="fill:#FFFFFF;stroke:#FFFFFF;stroke-width:2;stroke-miterlimit:10;" d="M296.6,101.2c0,0-63.1,123.7-191.3,225.8h36.8
		C245.6,217.9,296.6,101.2,296.6,101.2z"/>
	<path style="fill:#FFFFFF;stroke:#FFFFFF;stroke-width:2;stroke-miterlimit:10;" d="M487.7,327.1
		C359.5,224.9,296.6,101.3,296.6,101.3S347.5,218,450.7,327.1H487.7z"/>
	<path style="fill:#21421D;stroke:#FFFFFF;stroke-width:2;stroke-miterlimit:10;" d="M450.8,327.1
		C347.5,218,296.7,101.3,296.7,101.3S339.1,212,425.1,327.1H450.8z"/>
	<path style="fill:#21421D;stroke:#FFFFFF;stroke-width:2;stroke-miterlimit:10;" d="M167.7,327.1c86.2-115.1,129-225.8,129-225.8
		s-51,116.7-154.6,225.8H167.7z"/>
	<path style="fill:#FFFFFF;stroke:#FFFFFF;stroke-width:2;stroke-miterlimit:10;" d="M185.6,327.1c74.4-118.9,111-225.8,111-225.8
		s-42.6,110.8-129,225.8H185.6z"/>
	<path style="fill:#FFFFFF;stroke:#FFFFFF;stroke-width:2;stroke-miterlimit:10;" d="M425.1,327.1C339,212,296.6,101.2,296.6,101.2
		S333.1,208.1,407.5,327h17.7L425.1,327.1L425.1,327.1z"/>
	<path style="fill:#21421D;stroke:#FFFFFF;stroke-width:2;stroke-miterlimit:10;" d="M296.6,101.2c0,0-36.7,106.9-111,225.8h13.5
		h97.6H394h13.5C333.2,208.1,296.6,101.2,296.6,101.2z"/>
</g>
<g id="original">
	
		<radialGradient id="SVGID_1_" cx="547.5681" cy="507.4881" r="239.2107" gradientTransform="matrix(0.6036 0 0 0.6026 -33.2743 -25.275)" gradientUnits="userSpaceOnUse">
		<stop  offset="0" style="stop-color:#753128"/>
		<stop  offset="1" style="stop-color:#421C17"/>
	</radialGradient>
	<path style="fill:url(#SVGID_1_);stroke:#FFFFFF;stroke-width:3;stroke-miterlimit:10;" d="M493,262.4
		c-35.6-21.9-109.9-36.8-195-36.8c-0.3,0-0.5,0-0.8,0c-0.3,0-0.5,0-0.8,0c-85.2,0-159.5,15-195,36.9c-0.2,0.1-0.4,0.3-0.6,0.4
		l33.9,72.6c39.9-13.5,97.7-22,161.9-22c0.3,0,0.5,0,0.8,0s0.5,0,0.8,0c64.1,0,122,8.5,161.9,22l33.8-72.6
		C493.6,262.6,493.3,262.5,493,262.4z"/>
	<g>
		<path style="fill:#FFFFFF;" d="M133.4,293.1c-1.9-6.2-1.9-11.2,0-14.9c1.9-3.6,5.9-6.4,12-8.5c6.1-2.1,11-2.1,14.5-0.1
			c3.5,1.9,6.3,5.9,8.2,12.1c1.9,6.2,1.9,11.2,0,14.8c-1.9,3.6-5.9,6.4-12,8.5c-6.1,2-11,2.1-14.5,0.2
			C138.1,303.3,135.4,299.2,133.4,293.1z M142.7,290.1c1.3,4.3,3,7.5,4.8,9c1.9,1.6,4.3,1.9,7.2,0.9c2.9-0.8,4.7-2.5,5.4-5.1
			c0.6-2.4,0.4-5.8-0.9-10.1c-1.3-4.3-3-7.5-4.8-9c-1.9-1.6-4.3-1.9-7.2-0.9c-2.9,0.8-4.7,2.5-5.4,5.1
			C141.1,282.2,141.4,285.7,142.7,290.1z M152.2,298.8c-1.8,0.1-3.4-0.5-4.7-2.1c-1.2-1.6-2.4-3.8-3.4-7.2c-1.2-3.8-1.3-6.8-0.8-8.9
			c0.5-2.1,2-3.5,4.4-4.3c1.8-0.5,3.1-0.5,4.4,0c1.2,0.5,2.4,1.7,3.4,3.5c-1.2-0.2-2.3-0.3-3.3-0.3c-0.9,0-1.8,0.1-2.4,0.3
			c-1.7,0.5-2.6,1.3-3,2.9c-0.4,1.3-0.1,3.4,0.8,6.3c0.5,2,1.3,3.7,2.1,5.4C150.2,296,151,297.5,152.2,298.8z M159.7,267.9
			c3.8,1.7,6.8,3.5,8.7,5.7c2,2.2,3.6,5.2,4.7,9c0.9,3.1,1.3,6.1,1.3,8.9c-0.1,2.9-0.5,5.4-1.7,7.8c-0.9,2.3-2.5,4.3-4.8,6.2
			c-2.2,1.9-4.7,3.3-7.4,4.1c-2.5,0.8-5.2,1.1-7.8,0.8c-2.6-0.3-5.5-1.1-8.5-2.4c2,0.3,3.9,0.3,5.8,0.1c2-0.2,4.1-0.6,6.3-1.3
			c6.3-2.1,10.7-5.2,12.8-9.2c2.1-4.1,2.1-9.5,0.1-16.1c-1.1-3.5-2.4-6.3-3.8-8.3C164.2,271,162.2,269.2,159.7,267.9z"/>
		<path style="fill:#FFFFFF;" d="M178.6,296.6l-1.1-5.6l5.6-1.1l-4.3-22.9l-5.6,1.1l-1.1-5.6l24.1-4.8c3.4-0.6,5.9-1.1,7.4-1.1
			c1.3,0,2.5,0.1,3.4,0.4c1.3,0.5,2.4,1.3,3.4,2.7c0.8,1.3,1.3,2.7,1.9,4.7c0.4,2.7,0.2,5.1-0.9,6.9c-1.2,2-3,3.1-5.6,3.7l0.2,1.3
			l1.2-0.2c0.4-0.1,0.8,0,1.2,0.2c0.4,0.2,0.6,0.4,0.8,0.9l2.5,5c0.3,0.5,0.6,0.9,1.1,1.2c0.4,0.2,0.8,0.3,1.3,0.2l3.4-0.6l1.1,5.6
			l-8.9,1.8c-0.9,0.2-1.9,0.1-2.6-0.2c-0.8-0.4-1.3-0.9-2-2l-4.5-7.4c-0.6-1.3-1.3-2.1-2.3-2.5c-0.8-0.4-1.6-0.6-2.5-0.4l-6.8,1.3
			l1.7,9.2l5.6-1.1l1.1,5.6L178.6,296.6z M173.7,270l4.3-0.8l0.8,4L173.7,270z M178.8,298.3l20.6-4.1l-1.3-7.4l3.6,2.1l1.6,8.5
			l-19.6,3.8L178.8,298.3z M188.7,274.8l10-2c2.1-0.4,3.4-1.1,4-1.9c0.6-0.8,0.8-2.2,0.4-3.8c-0.3-1.6-0.9-2.6-2-3.3
			c-0.9-0.5-2.4-0.6-4.4-0.3l-10,2L188.7,274.8z M189.8,272.6l-1.1-5.6l8.6-1.7c1.2-0.2,2.2-0.2,3,0.2c0.6,0.4,1.2,0.9,1.3,1.9
			c0,0.2,0.1,0.4,0.1,0.5s0,0.3-0.1,0.4l-9,1.8l0.3,1.8L189.8,272.6z M194.3,284.1l0.3,1.7l-2.3,0.4l-1.1-5.6l5.2-0.9
			c0.5-0.1,1.2-0.1,1.6,0.2c0.4,0.2,0.8,0.6,1.3,1.3l1.1,1.8L194.3,284.1z M220.6,290.1l-1.3-7.4l3.7,2.5l1.3,8.1l-8.3,1.7
			c-1.1,0.2-2.1,0.2-3,0.1c-0.8-0.2-1.8-0.4-2.4-0.9l-3.3-2.3c0.4,0.2,0.8,0.4,1.3,0.4c0.4,0.1,0.8,0,1.3-0.1l0.5-0.1L220.6,290.1z
			 M210.9,277c-0.1-0.3-0.3-0.5-0.5-0.8c-0.3-0.3-0.5-0.4-0.9-0.6c1.9-0.9,3.3-2.4,4-4.3c0.8-2,0.9-4.2,0.4-6.7
			c-0.3-1.8-0.8-3.3-1.7-4.3c-0.8-1.2-1.8-2.3-3.1-3.1l4.7,3.4c0.8,0.6,1.6,1.3,2.2,2.5c0.5,0.9,0.9,2.2,1.3,3.5
			c0.4,2.3,0.2,4.3-0.4,6.2c-0.8,1.9-2.1,3.7-4,5.4l2,1.3l0.1,0.1c0.8,0.6,1.6,1.3,2,2.2l-2.4,0.4c-0.3,0.1-0.4,0-0.6-0.1
			c-0.2-0.1-0.4-0.4-0.4-0.6L210.9,277z"/>
		<path style="fill:#FFFFFF;" d="M237.8,280.8l5.7-0.6l0.5,5.7l-19.8,2.4l-0.5-5.7l5.7-0.6l-2.5-23.1l-5.7,0.6l-0.5-5.7l19.8-2.4
			l0.5,5.7l-5.7,0.6L237.8,280.8z M226.1,264.4l-4.7-3.4l4.4-0.4L226.1,264.4z M229.4,293.2l-5-3.4l21.1-2.4l-0.8-7.5l3.4,2.4
			l0.9,8.6L229.4,293.2z M238.9,278.7l-2.2-19.5l5.7-0.6l-0.8-7.5l3.5,3.3l0.8,7.8l-5.7,0.6l1.8,15.5L238.9,278.7z"/>
		<path style="fill:#FFFFFF;" d="M278.1,268.3l-4.8,0.2l-0.2-4.5l18.1-0.8l0.2,4.5l-5,0.2l0.6,15l-8.3,0.4l-0.2-4.5
			c-1.3,2-3,3.4-5.2,4.5c-2.1,1.1-4.4,1.7-7.3,1.8c-5.2,0.2-9.3-1.2-12.2-4.3c-3-3-4.7-7.7-4.8-13.6c-0.3-6.1,0.9-10.8,3.6-14
			c2.6-3.1,6.8-5,12.4-5.2c2.4-0.1,4.5,0.2,6.3,0.8c1.9,0.5,3.7,1.7,5.6,3.3l-0.2-3.4l8-0.4l0.4,8.9l-8,0.4
			c-1.6-1.3-3.1-2.4-4.8-3.1c-1.7-0.6-3.4-0.9-5.4-0.8c-3,0.1-5.2,1.3-6.5,3.4c-1.3,2.2-2,5.4-1.8,9.6c0.2,4.7,1.2,8.1,2.7,10.1
			c1.7,2.1,4.1,3,7.5,2.9c2.6-0.1,4.8-1.3,6.4-3.4C277.4,274.2,278.1,271.6,278.1,268.3z M256.5,285c1.7,0.8,3.4,1.3,5.2,1.6
			c1.7,0.3,3.4,0.4,5.2,0.4c1.9-0.1,3.6-0.4,5.4-1.1c1.7-0.6,3.4-1.7,5.2-3l0.2,3.4l0.6,0.5c-1.3,1.1-3,2-4.7,2.5s-3.4,0.9-5.2,0.9
			c-1.2,0.1-2.4-0.1-3.6-0.4c-1.3-0.4-2.4-0.8-3.4-1.7L256.5,285z M266.2,277.7c-1.8-0.3-3.1-1.3-4-3c-0.8-1.8-1.3-4.3-1.6-7.9
			c-0.2-3.8,0.3-6.7,1.3-8.5c1.1-1.8,2.9-2.7,5.4-2.9c2-0.1,3.7,0.2,5.4,0.8c1.7,0.6,3.1,1.8,4.5,3.1l9.9-0.4l-0.4-10.7l3.3,3.4
			l0.4,9.5l-11,0.4c-1.7-1.1-3.4-1.9-5.1-2.4c-1.7-0.4-3.4-0.6-5.2-0.5c-2.2,0.1-3.5,0.8-4.4,2c-0.8,1.3-1.1,3.4-0.9,6.4
			c0.1,1.9,0.3,3.6,0.6,5.2C264.8,274.4,265.3,276,266.2,277.7z M273.4,270.3l3.1-0.1c0,0.4-0.1,0.8-0.2,1.3
			c-0.1,0.4-0.3,0.8-0.4,1.3L273.4,270.3z M279,285.1l9.8-0.4l-0.6-15l5.1-0.2l-0.3-6.3l3.4,3.4l0.3,6.7l-5.1,0.2l0.6,15l-8.9,0.4
			L279,285.1z"/>
		<path style="fill:#FFFFFF;" d="M302.2,288.9l-4.5-4l21.3,0.4l0.1-7.6l3.1,2.7l-0.2,8.7L302.2,288.9z M311.9,277.6l5.8,0.1
			l-0.1,5.7l-19.9-0.4l0.1-5.7l5.7,0.1l0.4-23.2l-5.7-0.1l0.1-5.7l19.9,0.4l-0.1,5.7l-5.8-0.1L311.9,277.6z M302.3,259.9l-4.4-4
			l4.4,0.1V259.9z M313.3,275.8l0.3-19.6l5.7,0.1l0.1-7.6l3.1,3.6l-0.1,7.9l-5.7-0.1l-0.3,15.6L313.3,275.8z"/>
		<path style="fill:#FFFFFF;" d="M322.8,284.9l19.9,1.9l0.5-7.5l2.9,3.5l-0.6,8.2l-18.4-1.8L322.8,284.9z M323,283.2l0.4-5.7
			l5.7,0.4l2-23.1l-5.7-0.4l0.4-5.7l17.9,1.7l11,26.9l1.7-20l-5.7-0.4l0.4-5.7l17.7,1.7l-0.4,5.7l-5.1-0.4l-2.4,28.7l-11.7-1.1
			l-11.4-27.1l-1.7,20.1l5.7,0.4l-0.4,5.7L323,283.2z M325.3,256.1l4.4,0.4l-0.3,4L325.3,256.1z M337.8,277l0.9-12.1l2.6,6.3
			l-0.4,6.2L337.8,277z M345.4,250.5l3.9,5l-0.3,3l5.7,0.4l-0.9,11.9L345.4,250.5z M350.2,287.5l12.1,1.2l2.4-28.7l5.2,0.4l0.5-7.5
			l2.7,4.2l-0.6,7.9l-5.1-0.4l-2.4,28.4l-11-0.9L350.2,287.5z"/>
		<path style="fill:#FFFFFF;" d="M370.9,289.4l18.6,3.8l1.3-7.4l2.5,3.5l-1.6,8.3l-16.7-3.4L370.9,289.4z M371.3,287.5l1.1-5.6
			l4.8,0.9l15.3-26.4l13.2,2.6l5,30.4l4.8,0.9l-1.1,5.6l-18.6-3.8l1.1-5.6l4.7,0.9l-1.2-6.8l-12.2-2.5l-3.4,6l4.8,0.9l-1.1,5.6
			L371.3,287.5z M386.9,283.2l1.6-2.7l10.4,2.2l0.4,3.1L386.9,283.2z M390.4,274.4l9.2,1.9l-2.3-14.1L390.4,274.4z M393,273.1
			l3.6-6.5l0.8,5.6l-0.9,1.7L393,273.1z M395.4,294.5l19.9,4.1l1.3-7.4l2.4,3.8l-1.3,8.1l-18.9-3.8L395.4,294.5z M411.7,288.2
			l-4.7-28.7l4.8,8.9l3.1,20.5L411.7,288.2z"/>
		<path style="fill:#FFFFFF;" d="M418.7,299.2l32.6,11.2l6.1-19.8l2,4.3l-6.2,20l-31.3-10.4L418.7,299.2z M419.2,297.6l1.7-5.4
			l5.5,1.9l6.8-22l-5.5-1.9l1.7-5.4l18.9,6.3l-1.7,5.4l-5.4-1.9l-6.8,22l10.3,3.5l3.9-12.5l7.6,2.5l-5.6,17.9L419.2,297.6z
			 M430.2,277l-3-5.2l4.1,1.3L430.2,277z M436.2,295.4l5.8-18.5l5.5,1.9l2.3-7.2l2,4.5l-2.3,7.4l-5.4-1.9l-4.7,14.9L436.2,295.4z"/>
	</g>
</g>
<g id="bbqh">
	<path style="fill:#588C38;stroke:#ECF9FF;stroke-width:4;stroke-miterlimit:10;" d="M450.6,337.7c-34.2-9.7-89-15.9-152-15.9
		s-119.8,6.2-153.8,15.9c-2.1,0.8-4.1,1.5-7.5,2.1v88.7h317.1v-89C453.7,339.2,452.5,338.5,450.6,337.7z"/>
	<g>
		<g>
			<path style="fill:#FFFFFF;stroke:#ECF9FF;stroke-miterlimit:10;" d="M153,390v-27.2h13.7c2.9,0,4.9,0.8,6.2,2.1
				c1.3,1.3,1.9,3.3,1.9,5c0,1.3-0.4,2.5-1.1,3.7c-0.6,1.1-1.8,1.8-3.4,2.2c3.5,0.8,5.3,3,5.3,6.3c0,2-0.5,3.8-1.8,5.4
				c-1.2,1.5-3.9,2.3-7.9,2.3L153,390L153,390z M160.7,373.2h3.9c0.9,0,1.6-0.3,2-0.8c0.4-0.4,0.5-0.9,0.5-1.5
				c0-1.3-0.9-2.2-2.7-2.2h-3.7L160.7,373.2L160.7,373.2z M160.7,384h4c1.1,0,1.7-0.3,2.2-0.8c0.4-0.4,0.6-1.1,0.6-1.6
				c0-0.6-0.3-1.2-0.6-1.7c-0.4-0.4-1.3-0.8-2.4-0.8h-3.8V384L160.7,384z"/>
			<path style="fill:#FFFFFF;stroke:#ECF9FF;stroke-miterlimit:10;" d="M193.8,390l-1.5-5.4h-7.2l-1.6,5.4h-6.7l8.2-27.2h8.9
				l8.4,27.2H193.8z M186.6,378.7h4.3l-2.1-7.8L186.6,378.7z"/>
			<path style="fill:#FFFFFF;stroke:#ECF9FF;stroke-miterlimit:10;" d="M228.6,390h-9.1l-4-10.5h-2.4V390h-8.2v-27.2h14
				c3.1,0,5.5,0.8,7.2,2.2c1.7,1.3,2.4,3.4,2.4,5.8c0,1.5-0.4,3-0.9,4.2c-0.5,1.2-1.8,2.2-3.9,3.3L228.6,390z M212.9,373.7h3.5
				c1.1,0,1.8-0.3,2.4-0.6c0.5-0.4,0.9-1.1,0.9-1.9c0-1.7-1.1-2.5-3.3-2.5h-3.9L212.9,373.7L212.9,373.7z"/>
			<path style="fill:#FFFFFF;stroke:#ECF9FF;stroke-miterlimit:10;" d="M240.6,376.5v6.2h-10v-6.2H240.6z"/>
			<path style="fill:#FFFFFF;stroke:#ECF9FF;stroke-miterlimit:10;" d="M243.6,390v-27.2h13.7c2.9,0,4.9,0.8,6.2,2.1
				c1.3,1.3,1.9,3.3,1.9,5c0,1.3-0.4,2.5-1.1,3.7c-0.8,1.1-1.8,1.8-3.4,2.2c3.5,0.8,5.3,3,5.3,6.3c0,2-0.5,3.8-1.8,5.4
				c-1.2,1.5-3.9,2.3-7.9,2.3L243.6,390L243.6,390z M251.2,373.2h3.9c0.9,0,1.6-0.3,2-0.8c0.4-0.4,0.5-0.9,0.5-1.5
				c0-1.3-0.9-2.2-2.7-2.2h-3.7L251.2,373.2L251.2,373.2z M251.2,384h4c1.1,0,1.7-0.3,2.2-0.8c0.4-0.4,0.6-1.1,0.6-1.6
				c0-0.6-0.3-1.2-0.6-1.7c-0.4-0.4-1.3-0.8-2.4-0.8h-3.9L251.2,384L251.2,384z"/>
			<path style="fill:#FFFFFF;stroke:#ECF9FF;stroke-miterlimit:10;" d="M277.7,376.5v6.2h-10v-6.2H277.7z"/>
			<path style="fill:#FFFFFF;stroke:#ECF9FF;stroke-miterlimit:10;" d="M295,390.1c-0.9,0.2-1.7,0.3-2.7,0.3c-3.9,0-7-1.3-9.3-3.9
				c-2.3-2.5-3.5-6-3.5-10.1c0-4.1,1.1-7.4,3.4-10.1c2.3-2.5,5.4-4,9.5-4c3.8,0,6.7,1.3,9.1,3.8c2.3,2.4,3.5,5.9,3.5,10
				c0,5.1-1.6,9.1-4.9,11.6c0.3,0.8,1.1,1.2,2.4,1.2c0.5,0,1.3-0.1,2.2-0.3v6.1c-1.3,0.2-2.4,0.3-3.4,0.3c-1.3,0-2.9-0.3-4-0.8
				C296.3,393.4,295.5,392.1,295,390.1z M292.1,384.3c1.3,0,2.3-0.5,3-1.8c0.5-1.3,0.9-3.5,0.9-6.7c0-4.7-1.3-7.2-3.8-7.2
				c-2.7,0-4.1,2.6-4.1,8C288.2,381.6,289.5,384.3,292.1,384.3z"/>
			<path style="fill:#FFFFFF;stroke:#ECF9FF;stroke-miterlimit:10;" d="M330,362.8v18c0,3.4-1.1,5.9-3,7.3c-1.9,1.3-4.6,2.2-7.9,2.2
				c-3.4,0-6.1-0.8-8.2-2.1s-3.1-3.8-3.1-7.1v-18.5h8.4v17.6c0,1.3,0.3,2.2,0.8,2.9c0.4,0.5,1.3,0.8,2.4,0.8s1.7-0.3,2.4-0.6
				c0.5-0.4,1.1-0.8,1.1-1.3c0.1-0.5,0.2-1.5,0.2-3.3v-15.9L330,362.8L330,362.8z"/>
			<path style="fill:#FFFFFF;stroke:#ECF9FF;stroke-miterlimit:10;" d="M354.8,383.5v6.6h-20.2v-27.2h20.2v6.2h-12.1v4h9.8v6.1h-9.8
				v4.4L354.8,383.5L354.8,383.5z"/>
			<path style="fill:#FFFFFF;stroke:#ECF9FF;stroke-miterlimit:10;" d="M390.9,362.8V390h-8.2v-10.6h-6.2V390h-8.2v-27.2h8.2v10h6.2
				v-10H390.9z"/>
			<path style="fill:#FFFFFF;stroke:#ECF9FF;stroke-miterlimit:10;" d="M417.4,362.8v18c0,3.4-1.1,5.9-3,7.3
				c-1.8,1.4-4.6,2.2-7.9,2.2c-3.4,0-6.1-0.8-8.2-2.1c-2-1.3-3.1-3.8-3.1-7.1v-18.5h8.4v17.6c0,1.3,0.3,2.2,0.8,2.9
				c0.4,0.5,1.3,0.8,2.4,0.8c1.1,0,1.7-0.3,2.4-0.6c0.5-0.4,1.1-0.8,1.1-1.3c0.1-0.5,0.2-1.5,0.2-3.3v-15.9L417.4,362.8L417.4,362.8
				z"/>
			<path style="fill:#FFFFFF;stroke:#ECF9FF;stroke-miterlimit:10;" d="M432.8,369.2v20.7h-7.9v-20.7h-5.5v-6.6h18.9v6.6H432.8
				L432.8,369.2z"/>
		</g>
		<line style="fill:none;stroke:#ECF9FF;stroke-width:3;stroke-miterlimit:10;" x1="147" y1="350.5" x2="444.5" y2="350.5"/>
		<line style="fill:none;stroke:#ECF9FF;stroke-width:3;stroke-miterlimit:10;" x1="147.1" y1="405.6" x2="245.8" y2="405.6"/>
		<line style="fill:none;stroke:#ECF9FF;stroke-width:3;stroke-miterlimit:10;" x1="345.8" y1="405.6" x2="444.5" y2="405.6"/>
		<g style="enable-background:new    ;">
			<path style="fill:#FFFFCC;stroke:#ECF9FF;stroke-miterlimit:10;" d="M258,406.3v2.5h6.4c0.2,0,0.3,0,0.4-0.1
				c0.1-0.1,0.2-0.2,0.2-0.3h0.3v2.3H265c-0.1-0.2-0.1-0.3-0.2-0.3c-0.1-0.1-0.2-0.1-0.4-0.1h-9.1v-0.2c0.2-0.1,0.4-0.1,0.4-0.2
				c0.1-0.1,0.1-0.2,0.1-0.3v-7.8c0-0.2,0-0.3-0.1-0.3c-0.1-0.1-0.2-0.2-0.4-0.2v-0.4h8.9c0.2,0,0.3,0,0.4-0.1
				c0.1-0.1,0.2-0.2,0.2-0.3h0.3v2.3h-0.3c-0.1-0.2-0.1-0.3-0.2-0.3c-0.1-0.1-0.2-0.1-0.4-0.1H258v2.2h4.1c0.2,0,0.3,0,0.4-0.1
				c0.1-0.1,0.2-0.2,0.2-0.3h0.3v2.3h-0.3c-0.1-0.2-0.1-0.3-0.2-0.3c-0.1-0.1-0.2-0.1-0.4-0.1L258,406.3L258,406.3z"/>
			<path style="fill:#FFFFCC;stroke:#ECF9FF;stroke-miterlimit:10;" d="M276.1,401.9l-1.2,2.1l-0.2-0.1c0-0.1,0-0.1,0-0.1
				c0-0.2-0.2-0.3-0.4-0.4c-0.8-0.5-1.8-0.8-3.1-0.8c-0.4,0-0.9,0.1-1.3,0.2c-0.3,0.1-0.4,0.3-0.6,0.4c-0.2,0.2-0.3,0.4-0.3,0.5
				c0,0.3,0.3,0.5,0.6,0.8c0.3,0.1,0.8,0.2,1.5,0.2l1.2,0.1c0.6,0.1,1.3,0.2,1.7,0.3c0.4,0.1,0.8,0.3,1.1,0.4
				c0.4,0.3,0.5,0.4,0.8,0.8c0.2,0.3,0.3,0.8,0.3,1.2c0,0.6-0.3,1.3-0.6,1.7c-0.4,0.4-1.1,0.8-1.9,0.9c-0.6,0.2-1.3,0.3-2,0.3
				c-1.3,0-2.5-0.3-4-0.8c-0.3-0.1-0.4-0.2-0.4-0.2s-0.2,0.1-0.4,0.2l-0.3-0.1l1.1-2.3l0.3,0.1v0.1c0,0.2,0.1,0.4,0.4,0.5
				c0.4,0.3,0.8,0.4,1.3,0.6c0.5,0.2,1.3,0.3,1.8,0.3c0.6,0,1.2-0.1,1.7-0.3c0.3-0.1,0.4-0.3,0.5-0.4c0.2-0.1,0.3-0.4,0.3-0.5
				c0-0.3-0.2-0.4-0.4-0.6c-0.3-0.1-0.8-0.2-1.5-0.3l-1.1-0.1c-0.8-0.1-1.3-0.2-1.6-0.3c-0.4-0.1-0.5-0.2-0.9-0.3
				c-0.4-0.2-0.8-0.4-1.1-0.8c-0.3-0.3-0.4-0.8-0.4-1.3c0-0.8,0.3-1.3,0.8-2c0.8-0.6,1.8-0.9,3.4-0.9c0.6,0,1.3,0.1,1.7,0.2
				c0.5,0.1,1.3,0.3,2,0.6c0.3,0.1,0.4,0.2,0.4,0.2s0.3-0.1,0.4-0.2L276.1,401.9z"/>
			<path style="fill:#FFFFCC;stroke:#ECF9FF;stroke-miterlimit:10;" d="M283.2,402.6v7.1c0,0.2,0,0.3,0.1,0.3
				c0.1,0.1,0.2,0.2,0.4,0.2v0.3h-3.3v-0.3c0.2-0.1,0.4-0.1,0.4-0.2c0.1-0.1,0.1-0.2,0.1-0.3v-7.1h-3.3c-0.2,0-0.3,0-0.4,0.1
				c-0.1,0.1-0.2,0.2-0.2,0.3h-0.3v-2.3h0.3c0.1,0.2,0.1,0.3,0.2,0.3c0.1,0.1,0.2,0.1,0.4,0.1h8.4c0.2,0,0.3,0,0.4-0.1
				c0.1-0.1,0.2-0.2,0.2-0.3h0.3v2.3h-0.3c-0.1-0.2-0.1-0.3-0.2-0.3c-0.1-0.1-0.2-0.1-0.4-0.1H283.2L283.2,402.6z"/>
			<path style="fill:#FFFFCC;stroke:#ECF9FF;stroke-miterlimit:10;" d="M288.3,408.3c0.4,0,0.5,0.1,0.8,0.3c0.3,0.3,0.4,0.4,0.4,0.8
				s-0.1,0.5-0.4,0.8c-0.3,0.3-0.4,0.3-0.8,0.3c-0.4,0-0.5-0.1-0.8-0.3c-0.3-0.3-0.4-0.4-0.4-0.8s0.1-0.5,0.4-0.8
				C287.7,408.5,288,408.3,288.3,408.3z"/>
			<path style="fill:#FFFFCC;stroke:#ECF9FF;stroke-miterlimit:10;" d="M297.6,404.4V402h0.3c0.1,0.2,0.1,0.3,0.2,0.3
				c0.1,0.1,0.1,0.1,0.3,0.1c0.1,0,0.1,0,0.2,0l0.5-0.2v-0.4c0-0.2,0-0.3-0.1-0.3c-0.1,0-0.2-0.2-0.4-0.2V401h3.1v0.3
				c-0.2,0.1-0.4,0.1-0.4,0.2c-0.1,0.1-0.1,0.2-0.1,0.3v7.8c0,0.2,0,0.3,0.1,0.3c0.1,0.1,0.2,0.2,0.4,0.2v0.3h-3.1v-0.3
				c0.2-0.1,0.4-0.1,0.4-0.2c0.1-0.1,0.1-0.2,0.1-0.3v-5.8l-0.6,0.2c-0.2,0-0.3,0.1-0.4,0.2c-0.1,0.1-0.2,0.2-0.2,0.3h-0.3V404.4
				L297.6,404.4z"/>
			<path style="fill:#FFFFCC;stroke:#ECF9FF;stroke-miterlimit:10;" d="M304.4,409.9l1.3-2.2l0.2,0.1c0,0.1-0.1,0.2-0.1,0.3
				c0,0.2,0.2,0.3,0.4,0.5c0.3,0.2,0.5,0.3,1.1,0.3c0.4,0.1,0.8,0.2,1.2,0.2c0.8,0,1.5-0.2,2.1-0.5c0.4-0.3,0.6-0.5,0.8-0.8
				c0.2-0.3,0.4-0.8,0.4-1.3c-0.4,0.4-1.1,0.8-1.5,0.8c-0.4,0.1-1.1,0.3-1.7,0.3c-1.1,0-1.9-0.3-2.7-0.6c-0.4-0.3-0.8-0.5-1.1-1.1
				c-0.3-0.4-0.4-0.8-0.4-1.3c0-0.9,0.4-1.7,1.3-2.3c0.8-0.6,1.9-0.8,3.3-0.8c1.3,0,2.4,0.3,3.4,0.9c0.4,0.4,0.9,0.9,1.2,1.6
				c0.3,0.6,0.4,1.3,0.4,2c0,1.3-0.4,2.5-1.3,3.6c-1.1,0.8-2.3,1.3-4,1.3c-0.5,0-1.1-0.1-1.5-0.2c-0.4-0.1-0.9-0.3-1.5-0.4
				c-0.2-0.1-0.4-0.2-0.4-0.2C304.7,409.9,304.6,409.9,304.4,409.9c-0.1,0.2-0.1,0.2-0.2,0.2L304.4,409.9z M309,402.4
				c-0.8,0-1.3,0.2-1.8,0.4c-0.4,0.3-0.5,0.6-0.5,1.1c0,0.5,0.2,0.8,0.5,1.1c0.4,0.3,1.1,0.4,1.8,0.4c0.8,0,1.3-0.2,1.8-0.4
				c0.4-0.3,0.5-0.6,0.5-1.1c0-0.5-0.2-0.8-0.5-1.2C310.5,402.7,309.8,402.4,309,402.4z"/>
			<path style="fill:#FFFFCC;stroke:#ECF9FF;stroke-miterlimit:10;" d="M315.2,409.9l1.3-2.2l0.2,0.1c0,0.1-0.1,0.2-0.1,0.3
				c0,0.2,0.2,0.3,0.4,0.5c0.3,0.2,0.5,0.3,1.1,0.3c0.4,0.1,0.8,0.2,1.2,0.2c0.8,0,1.5-0.2,2.1-0.5c0.4-0.3,0.6-0.5,0.8-0.8
				c0.2-0.3,0.4-0.8,0.4-1.3c-0.4,0.4-1.1,0.8-1.5,0.8c-0.4,0.2-1.1,0.3-1.7,0.3c-1.1,0-1.9-0.3-2.7-0.6c-0.4-0.3-0.8-0.5-1.1-1.1
				c-0.3-0.4-0.4-0.8-0.4-1.3c0-0.9,0.4-1.7,1.3-2.3c0.8-0.6,1.9-0.8,3.3-0.8c1.3,0,2.4,0.3,3.4,0.9c0.4,0.4,0.9,0.9,1.2,1.6
				c0.3,0.6,0.4,1.3,0.4,2c0,1.3-0.4,2.5-1.3,3.6c-1.1,0.8-2.3,1.3-4,1.3c-0.5,0-1.1-0.1-1.5-0.2c-0.4-0.1-0.9-0.3-1.5-0.4
				c-0.2-0.1-0.4-0.2-0.4-0.2C315.4,409.9,315.3,409.9,315.2,409.9c-0.1,0.2-0.1,0.2-0.2,0.2L315.2,409.9z M319.8,402.4
				c-0.8,0-1.3,0.2-1.8,0.4c-0.4,0.3-0.5,0.6-0.5,1.1c0,0.5,0.2,0.8,0.5,1.1c0.4,0.3,1.1,0.4,1.8,0.4s1.3-0.2,1.8-0.4
				c0.4-0.3,0.5-0.6,0.5-1.1c0-0.5-0.2-0.8-0.5-1.2C321.2,402.7,320.6,402.4,319.8,402.4z"/>
			<path style="fill:#FFFFCC;stroke:#ECF9FF;stroke-miterlimit:10;" d="M332.8,402.6h-6.2c-0.2,0-0.3,0-0.4,0.1
				c-0.1,0.1-0.2,0.2-0.2,0.3h-0.3v-2.3h0.3c0.1,0.2,0.1,0.3,0.2,0.3c0.1,0.1,0.2,0.1,0.4,0.1h8c0.2,0,0.3,0,0.4-0.1
				c0.1-0.1,0.2-0.2,0.2-0.3h0.3v1.7l-4.6,6.8c-0.2,0.3-0.3,0.4-0.3,0.4c0,0.2,0.2,0.3,0.4,0.3v0.3h-3.6v-0.3
				c0.2-0.1,0.4-0.2,0.4-0.3c0.2-0.1,0.4-0.3,0.4-0.5L332.8,402.6z"/>
		</g>
	</g>
</g>
<g id="under_x5F_leaf">
	<g>
		<path style="fill:#1E411A;" d="M315.4,452.4c-3-5.9-6.4-8.9-13.3-8.6c3.5,1.5,6.4,3.3,7.8,6.1c-1.5-2.9-5-4.3-8.6-5.5
			c1.1,2.3,1.9,4.7,4.6,6.3C308.8,452.4,311.9,452.7,315.4,452.4z"/>
		<path style="fill:#1E411A;" d="M328.4,452.4c-3-5.9-6.4-8.9-13.3-8.6c3.5,1.5,6.4,3.3,7.8,6.1c-1.5-2.9-5-4.3-8.6-5.5
			c1.1,2.3,1.9,4.7,4.6,6.3C321.6,452.4,324.9,452.7,328.4,452.4z"/>
		<path style="fill:#1E411A;" d="M341.3,452.4c-3-5.9-6.4-8.9-13.3-8.6c3.5,1.5,6.4,3.3,7.8,6.1c-1.5-2.9-5-4.3-8.6-5.5
			c1.1,2.3,1.9,4.7,4.6,6.3C334.6,452.4,337.8,452.7,341.3,452.4z"/>
		<path style="fill:#1E411A;" d="M354.2,452.4c-3-5.9-6.4-8.9-13.3-8.6c3.5,1.5,6.4,3.3,7.8,6.1c-1.5-2.9-5-4.3-8.6-5.5
			c1.1,2.3,1.9,4.7,4.6,6.3C347.5,452.4,350.6,452.7,354.2,452.4z"/>
		<path style="fill:#1E411A;" d="M367,452.4c-3-5.9-6.4-8.9-13.3-8.6c3.5,1.5,6.4,3.3,7.8,6.1c-1.5-2.9-5-4.3-8.6-5.5
			c1.1,2.3,1.9,4.7,4.6,6.3C360.4,452.4,363.5,452.7,367,452.4z"/>
		<path style="fill:#1E411A;" d="M380,452.4c-3-5.9-6.4-8.9-13.3-8.6c3.5,1.5,6.4,3.3,7.8,6.1c-1.5-2.9-5-4.3-8.6-5.5
			c1.1,2.3,1.9,4.7,4.6,6.3C373.3,452.4,376.5,452.7,380,452.4z"/>
		<path style="fill:#1E411A;" d="M391.4,451.5c-2.5-5.3-5.8-7.9-11.7-7.6c3,1.3,5.7,3,6.8,5.5c-1.3-2.4-4.4-3.9-7.6-5
			c0.9,2,1.7,4.2,4.1,5.7C385.5,451.5,388.3,451.9,391.4,451.5z"/>
		<path style="fill:#1E411A;" d="M401.2,450.6c-2.2-4.6-5.1-7-10.3-6.7c2.7,1.2,5.1,2.4,6,4.9c-1.2-2.1-3.9-3.4-6.7-4.3
			c0.8,1.8,1.5,3.8,3.7,5C396.1,450.7,398.5,450.9,401.2,450.6z"/>
		<path style="fill:#1E411A;" d="M409.6,449.7c-2-4-4.4-6-8.9-5.8c2.3,0.9,4.3,2.1,5.3,4.2c-1.1-1.9-3.4-3-5.8-3.8
			c0.8,1.6,1.3,3.3,3.1,4.3C405.1,449.7,407.3,449.9,409.6,449.7z"/>
		<path style="fill:#1E411A;" d="M315.4,433.1c-3,5.9-6.4,8.9-13.3,8.6c3.5-1.5,6.4-3.3,7.8-6.1c-1.5,2.9-5,4.3-8.6,5.5
			c1.1-2.3,1.9-4.7,4.6-6.3C308.8,433,311.9,432.7,315.4,433.1z"/>
		<path style="fill:#1E411A;" d="M328.4,433.1c-3,5.9-6.4,8.9-13.3,8.6c3.5-1.5,6.4-3.3,7.8-6.1c-1.5,2.9-5,4.3-8.6,5.5
			c1.1-2.3,1.9-4.7,4.6-6.3C321.6,433,324.9,432.7,328.4,433.1z"/>
		<path style="fill:#1E411A;" d="M341.3,433.1c-3,5.9-6.4,8.9-13.3,8.6c3.5-1.5,6.4-3.3,7.8-6.1c-1.5,2.9-5,4.3-8.6,5.5
			c1.1-2.3,1.9-4.7,4.6-6.3C334.6,433,337.8,432.7,341.3,433.1z"/>
		<path style="fill:#1E411A;" d="M354.2,433.1c-3,5.9-6.4,8.9-13.3,8.6c3.5-1.5,6.4-3.3,7.8-6.1c-1.5,2.9-5,4.3-8.6,5.5
			c1.1-2.3,1.9-4.7,4.6-6.3C347.5,433,350.6,432.7,354.2,433.1z"/>
		<path style="fill:#1E411A;" d="M367,433.1c-3,5.9-6.4,8.9-13.3,8.6c3.5-1.5,6.4-3.3,7.8-6.1c-1.5,2.9-5,4.3-8.6,5.5
			c1.1-2.3,1.9-4.7,4.6-6.3C360.4,433,363.5,432.7,367,433.1z"/>
		<path style="fill:#1E411A;" d="M380,433.1c-3,5.9-6.4,8.9-13.3,8.6c3.5-1.5,6.4-3.3,7.8-6.1c-1.5,2.9-5,4.3-8.6,5.5
			c1.1-2.3,1.9-4.7,4.6-6.3C373.3,433,376.5,432.7,380,433.1z"/>
		<path style="fill:#1E411A;" d="M391.4,434.1c-2.5,5.3-5.8,7.9-11.7,7.6c3-1.3,5.7-3,6.8-5.5c-1.3,2.4-4.4,3.9-7.6,5
			c0.9-2,1.7-4.2,4.1-5.7C385.5,433.9,388.3,433.8,391.4,434.1z"/>
		<path style="fill:#1E411A;" d="M401.2,434.9c-2.2,4.6-5.1,7-10.3,6.7c2.7-1.2,5.1-2.4,6-4.9c-1.2,2.1-3.9,3.4-6.7,4.3
			c0.8-1.8,1.5-3.8,3.7-5C396.1,434.9,398.5,434.6,401.2,434.9z"/>
		<path style="fill:#1E411A;" d="M409.6,435.8c-2,4-4.4,6-8.9,5.8c2.3-0.9,4.3-2.1,5.3-4.2c-1.1,1.9-3.4,3-5.8,3.8
			c0.8-1.6,1.3-3.3,3.1-4.3C405.1,435.8,407.3,435.5,409.6,435.8z"/>
		<path style="fill:#1E411A;" d="M414.3,442.3c-2.4-2-4.7-2.3-8.1,0c1.9-0.4,3.8-0.5,5,0.5c-1.2-0.9-3.3-0.5-5.3,0.1
			c0.9,0.8,1.7,1.7,3.4,1.7C411.1,444.6,412.6,443.7,414.3,442.3z"/>
		<polygon style="fill:#1E411A;" points="389.7,442.3 311.8,442.4 293,441.8 293,443.4 389.7,443 406,442.7 		"/>
	</g>
	<g>
		<path style="fill:#1E411A;" d="M276.1,433.1c3,5.9,6.4,8.9,13.3,8.6c-3.5-1.5-6.4-3.3-7.8-6.1c1.5,2.9,5,4.3,8.6,5.5
			c-1.1-2.3-1.9-4.7-4.6-6.3C282.8,433,279.5,432.7,276.1,433.1z"/>
		<path style="fill:#1E411A;" d="M263.2,433.1c3,5.9,6.4,8.9,13.3,8.6c-3.5-1.5-6.4-3.3-7.8-6.1c1.5,2.9,5,4.3,8.6,5.5
			c-1.1-2.3-1.9-4.7-4.6-6.3C269.8,433,266.6,432.7,263.2,433.1z"/>
		<path style="fill:#1E411A;" d="M250.3,433.1c3,5.9,6.4,8.9,13.3,8.6c-3.5-1.5-6.4-3.3-7.8-6.1c1.5,2.9,5,4.3,8.6,5.5
			c-1.1-2.3-1.9-4.7-4.6-6.3C257,433,253.7,432.7,250.3,433.1z"/>
		<path style="fill:#1E411A;" d="M237.4,433.1c3,5.9,6.4,8.9,13.3,8.6c-3.5-1.5-6.4-3.3-7.8-6.1c1.5,2.9,5,4.3,8.6,5.5
			c-1.1-2.3-1.9-4.7-4.6-6.3C244,433,240.7,432.7,237.4,433.1z"/>
		<path style="fill:#1E411A;" d="M224.4,433.1c3,5.9,6.4,8.9,13.3,8.6c-3.5-1.5-6.4-3.3-7.8-6.1c1.5,2.9,5,4.3,8.6,5.5
			c-1.1-2.3-1.9-4.7-4.6-6.3C231.1,433,227.9,432.7,224.4,433.1z"/>
		<path style="fill:#1E411A;" d="M211.6,433.1c3,5.9,6.4,8.9,13.3,8.6c-3.5-1.5-6.4-3.3-7.8-6.1c1.5,2.9,5,4.3,8.6,5.5
			c-1.1-2.3-1.9-4.7-4.6-6.3C218.2,433,214.9,432.7,211.6,433.1z"/>
		<path style="fill:#1E411A;" d="M200.1,434.1c2.5,5.3,5.8,7.9,11.7,7.6c-3-1.3-5.7-3-6.8-5.5c1.3,2.4,4.4,3.9,7.6,5
			c-0.9-2-1.7-4.2-4.1-5.7S203.2,433.8,200.1,434.1z"/>
		<path style="fill:#1E411A;" d="M190.2,434.9c2.2,4.6,5.1,7,10.3,6.7c-2.7-1.2-5.1-2.4-6-4.9c1.2,2.1,3.9,3.4,6.7,4.3
			c-0.8-1.8-1.5-3.8-3.7-5C195.5,434.9,193,434.6,190.2,434.9z"/>
		<path style="fill:#1E411A;" d="M181.8,435.8c2,4,4.4,6,8.9,5.8c-2.3-0.9-4.3-2.1-5.3-4.2c1.1,1.9,3.4,3,5.8,3.8
			c-0.8-1.6-1.3-3.3-3.1-4.3C186.3,435.8,184.1,435.5,181.8,435.8z"/>
		<path style="fill:#1E411A;" d="M276.1,452.4c3-5.9,6.4-8.9,13.3-8.6c-3.5,1.5-6.4,3.3-7.8,6.1c1.5-2.9,5-4.3,8.6-5.5
			c-1.1,2.3-1.9,4.7-4.6,6.3C282.8,452.4,279.5,452.7,276.1,452.4z"/>
		<path style="fill:#1E411A;" d="M263.2,452.4c3-5.9,6.4-8.9,13.3-8.6c-3.5,1.5-6.4,3.3-7.8,6.1c1.5-2.9,5-4.3,8.6-5.5
			c-1.1,2.3-1.9,4.7-4.6,6.3C269.8,452.4,266.6,452.7,263.2,452.4z"/>
		<path style="fill:#1E411A;" d="M250.3,452.4c3-5.9,6.4-8.9,13.3-8.6c-3.5,1.5-6.4,3.3-7.8,6.1c1.5-2.9,5-4.3,8.6-5.5
			c-1.1,2.3-1.9,4.7-4.6,6.3C257,452.4,253.7,452.7,250.3,452.4z"/>
		<path style="fill:#1E411A;" d="M237.4,452.4c3-5.9,6.4-8.9,13.3-8.6c-3.5,1.5-6.4,3.3-7.8,6.1c1.5-2.9,5-4.3,8.6-5.5
			c-1.1,2.3-1.9,4.7-4.6,6.3C244,452.4,240.7,452.7,237.4,452.4z"/>
		<path style="fill:#1E411A;" d="M224.4,452.4c3-5.9,6.4-8.9,13.3-8.6c-3.5,1.5-6.4,3.3-7.8,6.1c1.5-2.9,5-4.3,8.6-5.5
			c-1.1,2.3-1.9,4.7-4.6,6.3C231.1,452.4,227.9,452.7,224.4,452.4z"/>
		<path style="fill:#1E411A;" d="M211.6,452.4c3-5.9,6.4-8.9,13.3-8.6c-3.5,1.5-6.4,3.3-7.8,6.1c1.5-2.9,5-4.3,8.6-5.5
			c-1.1,2.3-1.9,4.7-4.6,6.3C218.2,452.4,214.9,452.7,211.6,452.4z"/>
		<path style="fill:#1E411A;" d="M200.1,451.5c2.5-5.3,5.8-7.9,11.7-7.6c-3,1.3-5.7,3-6.8,5.5c1.3-2.4,4.4-3.9,7.6-5
			c-0.9,2-1.7,4.2-4.1,5.7C206.2,451.5,203.2,451.9,200.1,451.5z"/>
		<path style="fill:#1E411A;" d="M190.2,450.6c2.2-4.6,5.1-7,10.3-6.7c-2.7,1.2-5.1,2.4-6,4.9c1.2-2.1,3.9-3.4,6.7-4.3
			c-0.8,1.8-1.5,3.8-3.7,5C195.5,450.7,193,450.9,190.2,450.6z"/>
		<path style="fill:#1E411A;" d="M181.8,449.7c2-4,4.4-6,8.9-5.8c-2.3,0.9-4.3,2.1-5.3,4.2c1.1-1.9,3.4-3,5.8-3.8
			c-0.8,1.6-1.3,3.3-3.1,4.3C186.3,449.7,184.1,449.9,181.8,449.7z"/>
		<path style="fill:#1E411A;" d="M177.2,443.1c2.4,2,4.7,2.3,8.1,0c-1.9,0.4-3.8,0.5-5-0.5c1.2,0.9,3.3,0.5,5.3-0.1
			c-0.9-0.8-1.7-1.7-3.4-1.7C180.5,440.9,178.7,441.8,177.2,443.1z"/>
		<polygon style="fill:#1E411A;" points="201.9,443.1 279.7,443 298.4,443.7 298.4,442 201.9,442.4 185.6,442.7 		"/>
	</g>
</g>
</svg>
